{"glyphs":{"0":{"ha":538,"x_min":61,"x_max":733,"o":"m 468 876 q 410 831 422 876 l 239 168 q 267 121 226 121 l 331 121 q 385 169 372 121 l 556 831 q 519 876 568 876 l 468 876 m 222 0 q 106 171 61 0 l 275 826 q 479 997 321 997 l 572 997 q 688 826 733 997 l 518 171 q 315 0 474 0 l 222 0 z "},"1":{"ha":336,"x_min":135,"x_max":513,"o":"m 257 761 l 229 867 q 300 902 269 886 q 350 932 331 918 q 388 962 369 946 q 422 997 406 978 l 436 997 l 513 950 l 267 0 l 135 0 l 342 803 l 257 761 z "},"2":{"ha":507,"x_min":79,"x_max":703,"o":"m 468 119 l 438 0 l 79 0 l 108 115 q 142 195 119 160 q 188 258 165 231 l 439 563 q 458 588 450 578 q 472 626 465 599 l 528 839 q 501 876 536 876 l 456 876 q 406 838 414 876 l 374 715 l 240 715 l 268 826 q 472 997 314 997 l 542 997 q 657 826 703 997 l 604 619 q 581 565 597 592 q 542 511 564 538 l 278 200 q 255 162 260 179 q 243 119 250 144 l 468 119 z "},"3":{"ha":518,"x_min":51,"x_max":704,"o":"m 490 513 q 569 414 590 497 l 506 169 q 303 0 461 0 l 213 0 q 96 169 51 0 l 119 261 l 253 261 l 228 165 q 256 121 217 121 l 319 121 q 371 165 360 121 l 429 388 q 381 450 443 450 l 331 450 l 360 563 l 399 563 q 471 617 458 563 l 526 831 q 496 875 539 875 l 447 875 q 396 831 408 875 l 367 715 l 233 715 l 261 826 q 465 997 307 997 l 543 997 q 658 826 704 997 l 604 614 q 490 513 582 526 z "},"4":{"ha":510,"x_min":104,"x_max":669,"o":"m 521 829 l 514 829 l 240 304 l 364 304 l 521 829 m 538 192 l 461 192 l 413 0 l 282 0 l 331 192 l 139 192 q 113 199 121 192 q 107 229 104 206 l 114 297 l 497 997 l 669 997 l 490 304 l 567 304 l 538 192 z "},"5":{"ha":506,"x_min":54,"x_max":693,"o":"m 229 160 q 258 121 219 121 l 310 121 q 357 160 347 121 l 428 432 q 390 472 439 472 l 181 472 l 317 997 l 693 997 l 661 874 l 410 874 l 329 558 q 369 583 344 574 q 421 593 393 593 l 456 593 q 568 457 601 593 l 494 176 q 290 0 449 0 l 215 0 q 99 169 54 0 l 119 247 l 253 247 l 229 160 z "},"6":{"ha":535,"x_min":61,"x_max":722,"o":"m 238 165 q 267 121 226 121 l 329 121 q 381 164 371 121 l 443 404 q 408 450 456 450 l 311 450 l 238 165 m 518 728 l 546 832 q 511 876 557 876 l 463 876 q 411 832 422 876 l 333 536 q 379 563 353 556 q 426 571 406 571 l 467 571 q 575 400 618 571 l 515 168 q 319 0 472 0 l 215 0 q 101 154 61 0 l 275 826 q 472 997 321 997 l 568 997 q 676 826 722 997 l 651 728 l 518 728 z "},"7":{"ha":421,"x_min":90,"x_max":658,"o":"m 239 874 l 271 997 l 629 997 l 658 953 l 222 0 l 90 0 l 488 874 l 239 874 z "},"8":{"ha":532,"x_min":54,"x_max":725,"o":"m 357 613 q 385 565 344 565 l 438 565 q 492 614 478 568 l 549 832 q 513 875 558 875 l 471 875 q 414 832 424 875 l 357 613 m 314 121 q 392 193 374 121 l 446 400 q 408 450 458 450 l 347 450 q 292 400 304 449 l 238 193 q 279 121 219 121 l 314 121 m 292 508 q 224 615 203 529 l 278 826 q 482 997 324 997 l 564 997 q 679 826 725 997 l 625 614 q 510 507 601 528 q 572 374 603 492 l 519 169 q 317 0 475 0 l 215 0 q 99 169 54 0 l 151 375 q 292 508 183 490 z "},"9":{"ha":532,"x_min":68,"x_max":728,"o":"m 553 832 q 524 876 564 876 l 461 876 q 410 833 419 876 l 332 532 q 365 486 319 486 l 463 486 l 553 832 m 440 400 q 395 373 421 381 q 349 365 369 365 l 308 365 q 199 536 154 365 l 275 829 q 471 997 318 997 l 575 997 q 689 843 728 997 l 514 171 q 318 0 469 0 l 222 0 q 113 171 68 0 l 133 250 l 267 250 l 244 165 q 279 121 233 121 l 328 121 q 379 165 368 121 l 440 400 l 440 400 z "}," ":{"ha":222,"x_min":0,"x_max":0,"o":""},"!":{"ha":247,"x_min":56,"x_max":454,"o":"m 240 169 l 197 0 l 56 0 l 99 169 l 240 169 m 454 997 l 250 269 l 138 269 l 307 997 l 454 997 z "},"\"":{"ha":415,"x_min":231,"x_max":631,"o":"m 529 667 l 431 667 l 499 997 l 631 997 l 529 667 m 329 667 l 231 667 l 299 997 l 431 997 l 329 667 z "},"#":{"ha":646,"x_min":63,"x_max":800,"o":"m 426 665 l 303 339 l 443 339 l 567 665 l 426 665 m 265 244 l 174 0 l 79 0 l 171 244 l 63 244 l 99 339 l 208 339 l 332 665 l 222 665 l 258 760 l 368 760 l 458 997 l 553 997 l 463 760 l 603 760 l 693 997 l 788 997 l 697 760 l 800 760 l 764 665 l 661 665 l 538 339 l 640 339 l 604 244 l 500 244 l 408 0 l 314 0 l 406 244 l 265 244 z "},"$":{"ha":528,"x_min":49,"x_max":700,"o":"m 249 260 l 224 163 q 253 121 213 121 l 310 121 q 360 163 351 121 l 407 346 q 408 383 414 374 q 388 400 401 392 l 247 506 q 219 534 228 521 q 208 560 210 547 q 208 589 206 574 q 217 624 211 604 l 268 826 q 467 997 311 994 l 499 1117 l 594 1117 l 563 996 q 658 826 700 986 l 633 729 l 500 729 l 528 833 q 497 876 540 876 l 458 876 q 404 832 413 876 l 354 640 q 356 603 347 613 q 379 585 364 594 l 521 485 q 556 441 551 463 q 547 372 560 419 l 494 168 q 301 0 453 7 l 269 -119 l 174 -119 l 206 0 q 96 183 49 3 l 115 260 l 249 260 z "},"%":{"ha":967,"x_min":175,"x_max":1049,"o":"m 863 446 q 831 424 836 446 l 750 111 q 769 86 743 86 l 800 86 q 833 111 826 86 l 914 424 q 893 446 919 446 l 863 446 m 421 910 q 390 888 396 910 l 310 575 q 328 550 303 550 l 358 550 q 393 575 386 550 l 474 888 q 451 910 479 910 l 421 910 m 940 997 l 367 0 l 282 0 l 856 997 l 940 997 m 294 464 q 206 582 175 464 l 282 879 q 432 997 313 997 l 486 997 q 576 879 607 997 l 500 582 q 349 464 469 464 l 294 464 m 736 0 q 646 118 617 0 l 724 415 q 874 533 754 533 l 928 533 q 1018 415 1049 533 l 940 118 q 790 0 911 0 l 736 0 z "},"&":{"ha":518,"x_min":56,"x_max":701,"o":"m 350 460 q 285 406 299 460 l 218 147 q 242 111 210 111 l 313 111 q 357 147 349 111 l 438 460 l 350 460 m 281 515 q 235 629 210 536 l 292 851 q 475 997 329 997 l 556 997 q 664 851 701 997 l 635 739 l 510 739 l 539 849 q 508 886 547 886 l 467 886 q 417 849 422 878 l 353 606 q 383 558 340 558 l 649 558 l 622 460 l 563 460 l 483 156 q 297 0 444 0 l 203 0 q 94 156 56 0 l 157 396 q 281 515 185 499 z "},"'":{"ha":215,"x_min":226,"x_max":431,"o":"m 325 653 l 226 653 l 299 997 l 431 997 l 325 653 z "},"(":{"ha":286,"x_min":68,"x_max":543,"o":"m 286 0 l 222 0 q 113 169 68 0 l 282 826 q 479 997 328 997 l 543 997 l 517 892 l 475 892 q 397 821 415 892 l 231 175 q 271 104 211 104 l 313 104 l 286 0 z "},")":{"ha":286,"x_min":0,"x_max":475,"o":"m 26 104 l 68 104 q 144 175 125 104 l 311 821 q 272 892 329 892 l 231 892 l 257 997 l 321 997 q 429 826 475 997 l 260 169 q 64 0 215 0 l 0 0 l 26 104 z "},"*":{"ha":494,"x_min":236,"x_max":672,"o":"m 369 958 l 440 858 l 454 867 l 503 1010 l 622 967 l 519 842 l 524 832 l 672 865 l 644 743 l 514 763 l 506 753 l 560 643 l 429 578 l 428 719 l 415 724 l 288 618 l 236 719 l 376 779 l 376 792 l 261 850 l 369 958 z "},"+":{"ha":529,"x_min":167,"x_max":614,"o":"m 442 431 l 401 275 l 279 275 l 319 431 l 167 431 l 196 547 l 349 547 l 390 708 l 513 708 l 471 547 l 614 547 l 585 431 l 442 431 z "},",":{"ha":232,"x_min":0,"x_max":235,"o":"m 0 -165 l 107 0 l 42 0 l 86 172 l 235 172 l 190 0 l 81 -165 l 0 -165 z "},"-":{"ha":333,"x_min":126,"x_max":460,"o":"m 126 435 l 154 546 l 460 546 l 432 435 l 126 435 z "},".":{"ha":253,"x_min":56,"x_max":240,"o":"m 240 169 l 197 0 l 56 0 l 99 169 l 240 169 z "},"/":{"ha":371,"x_min":-31,"x_max":660,"o":"m 660 1067 l 61 -69 l -31 -69 l 565 1067 l 660 1067 z "},":":{"ha":253,"x_min":56,"x_max":400,"o":"m 240 169 l 197 0 l 56 0 l 99 169 l 240 169 m 400 799 l 356 629 l 214 629 l 258 799 l 400 799 z "},";":{"ha":260,"x_min":14,"x_max":399,"o":"m 399 799 l 354 629 l 213 629 l 257 799 l 399 799 m 14 -165 l 121 0 l 56 0 l 100 172 l 249 172 l 204 0 l 94 -165 l 14 -165 z "},"<":{"ha":414,"x_min":126,"x_max":578,"o":"m 431 229 l 389 67 l 126 386 l 150 474 l 578 796 l 535 631 l 261 429 l 431 229 z "},"=":{"ha":514,"x_min":135,"x_max":625,"o":"m 193 533 l 222 647 l 625 647 l 596 533 l 193 533 m 135 308 l 164 422 l 567 422 l 538 308 l 135 308 z "},">":{"ha":414,"x_min":57,"x_max":508,"o":"m 204 631 l 246 793 l 508 475 l 485 386 l 57 64 l 100 229 l 374 431 l 204 631 z "},"?":{"ha":522,"x_min":167,"x_max":725,"o":"m 351 169 l 308 0 l 167 0 l 210 169 l 351 169 m 238 269 l 281 438 q 292 474 286 460 q 305 499 297 489 q 324 517 313 510 q 350 536 335 525 l 465 607 q 492 633 485 621 q 507 672 500 644 l 543 815 q 501 876 560 876 l 450 876 q 378 815 394 876 l 360 743 l 226 743 l 247 826 q 451 997 293 997 l 565 997 q 679 826 725 997 l 629 629 q 616 591 622 606 q 601 566 610 576 q 582 547 593 556 q 556 528 571 539 l 444 457 q 417 433 425 444 q 403 393 410 421 l 371 269 l 238 269 z "},"@":{"ha":763,"x_min":63,"x_max":926,"o":"m 565 479 l 631 732 q 603 754 636 754 l 561 754 q 522 732 528 754 l 457 479 l 565 479 m 700 0 l 63 0 l 253 740 q 301 853 269 804 q 373 934 332 901 q 463 982 414 967 q 565 997 511 997 l 690 997 q 881 933 839 997 q 899 771 926 871 l 738 147 l 479 147 l 542 389 l 433 389 l 371 147 l 272 147 l 419 717 q 571 843 453 843 l 640 843 q 725 717 758 843 l 599 229 l 667 229 l 806 764 q 792 875 825 839 q 672 911 760 911 l 547 911 q 417 866 468 910 q 346 746 365 822 l 176 88 l 722 88 l 700 0 z "},"A":{"ha":531,"x_min":56,"x_max":733,"o":"m 467 486 l 553 818 q 510 876 567 876 l 474 876 q 400 818 414 876 l 314 486 l 467 486 m 189 0 l 56 0 l 268 826 q 472 997 314 997 l 572 997 q 688 826 733 997 l 475 0 l 342 0 l 436 365 l 283 365 l 189 0 z "},"B":{"ha":531,"x_min":63,"x_max":711,"o":"m 336 546 l 396 546 q 451 560 435 546 q 478 611 468 575 l 531 814 q 490 886 549 886 l 425 886 l 336 546 m 224 111 l 335 111 q 388 154 378 111 l 442 364 q 382 435 460 435 l 308 435 l 224 111 m 513 493 q 581 465 565 490 q 581 386 596 439 l 519 149 q 497 83 510 111 q 464 37 485 56 q 411 9 443 18 q 331 0 379 0 l 63 0 l 319 997 l 533 997 q 665 817 711 997 l 610 606 q 575 533 597 561 q 513 493 553 504 z "},"C":{"ha":510,"x_min":61,"x_max":726,"o":"m 535 261 l 511 169 q 443 42 489 85 q 308 0 397 0 l 222 0 q 106 169 61 0 l 276 828 q 479 997 321 997 l 565 997 q 682 828 726 997 l 646 688 l 513 688 l 549 828 q 504 886 563 886 l 478 886 q 410 828 424 886 l 239 169 q 276 111 224 111 l 310 111 q 378 169 363 111 l 401 261 l 535 261 z "},"D":{"ha":538,"x_min":63,"x_max":718,"o":"m 226 121 l 326 121 q 369 133 354 121 q 390 165 385 146 l 556 804 q 515 876 574 876 l 422 876 l 226 121 m 319 997 l 551 997 q 682 956 646 997 q 694 819 718 915 l 518 144 q 322 0 482 0 l 63 0 l 319 997 z "},"E":{"ha":399,"x_min":63,"x_max":614,"o":"m 63 0 l 319 997 l 614 997 l 586 886 l 425 886 l 336 546 l 497 546 l 469 435 l 308 435 l 224 111 l 385 111 l 357 0 l 63 0 z "},"F":{"ha":399,"x_min":63,"x_max":614,"o":"m 497 546 l 469 435 l 308 435 l 196 0 l 63 0 l 319 997 l 614 997 l 586 886 l 425 886 l 336 546 l 497 546 z "},"G":{"ha":542,"x_min":61,"x_max":726,"o":"m 361 379 l 390 490 l 604 490 l 479 0 l 222 0 q 106 169 61 0 l 276 828 q 479 997 321 997 l 565 997 q 682 828 726 997 l 646 688 l 513 688 l 546 818 q 546 864 554 851 q 501 876 538 876 l 475 876 q 407 818 421 876 l 242 179 q 242 134 233 147 q 281 121 250 121 l 375 121 l 442 379 l 361 379 z "},"H":{"ha":544,"x_min":63,"x_max":739,"o":"m 349 0 l 461 435 l 308 435 l 196 0 l 63 0 l 319 997 l 453 997 l 336 546 l 489 546 l 606 997 l 739 997 l 482 0 l 349 0 z "},"I":{"ha":258,"x_min":63,"x_max":453,"o":"m 63 0 l 319 997 l 453 997 l 196 0 l 63 0 z "},"J":{"ha":371,"x_min":28,"x_max":565,"o":"m 56 111 l 154 111 q 192 124 175 111 q 217 164 210 136 l 432 997 l 565 997 l 351 168 q 154 0 307 0 l 28 0 l 56 111 z "},"K":{"ha":492,"x_min":63,"x_max":718,"o":"m 324 494 l 596 997 l 718 997 l 446 500 l 492 0 l 358 0 l 321 486 l 196 0 l 63 0 l 319 997 l 453 997 l 324 494 z "},"L":{"ha":385,"x_min":63,"x_max":453,"o":"m 357 0 l 63 0 l 319 997 l 453 997 l 224 111 l 385 111 l 357 0 z "},"M":{"ha":660,"x_min":63,"x_max":861,"o":"m 439 411 l 714 997 l 861 997 l 604 0 l 471 0 l 653 653 l 431 181 l 328 181 l 350 653 l 196 0 l 63 0 l 319 997 l 467 997 l 439 411 z "},"N":{"ha":529,"x_min":63,"x_max":729,"o":"m 596 997 l 729 997 l 472 0 l 339 0 l 390 199 l 364 653 l 196 0 l 63 0 l 319 997 l 453 997 l 472 515 l 596 997 z "},"O":{"ha":558,"x_min":61,"x_max":754,"o":"m 336 111 q 378 124 360 111 q 404 163 397 136 l 578 835 q 539 886 592 886 l 476 886 q 411 835 425 886 l 238 163 q 276 111 224 111 l 336 111 m 224 0 q 106 169 61 0 l 275 826 q 479 997 321 997 l 593 997 q 708 826 754 997 l 539 169 q 335 0 494 0 l 224 0 z "},"P":{"ha":517,"x_min":63,"x_max":731,"o":"m 322 490 l 344 490 q 443 514 407 490 q 493 590 479 538 l 558 842 q 524 886 574 886 l 425 886 l 322 490 m 196 0 l 63 0 l 319 997 l 571 997 q 688 826 731 997 l 622 571 q 518 423 594 467 q 315 379 442 379 l 293 379 l 196 0 z "},"Q":{"ha":558,"x_min":61,"x_max":754,"o":"m 578 835 q 539 886 592 886 l 476 886 q 411 835 425 886 l 238 163 q 276 111 224 111 l 390 111 l 578 835 m 597 111 l 569 0 l 224 0 q 106 169 61 0 l 275 826 q 479 997 321 997 l 593 997 q 708 826 754 997 l 524 111 l 597 111 z "},"R":{"ha":532,"x_min":63,"x_max":735,"o":"m 329 517 l 417 517 q 494 589 476 517 l 550 804 q 510 876 568 876 l 422 876 l 329 517 m 364 0 l 381 403 l 300 403 l 196 0 l 63 0 l 319 997 l 581 997 q 689 826 735 997 l 626 581 q 504 415 592 450 l 490 0 l 364 0 z "},"S":{"ha":514,"x_min":54,"x_max":711,"o":"m 228 153 q 257 111 217 111 l 314 111 q 364 153 356 111 l 417 356 q 417 392 424 382 q 397 410 410 401 l 271 508 q 230 579 233 539 q 236 661 226 619 l 278 840 q 350 962 301 926 q 479 997 399 997 l 550 997 q 665 826 711 997 l 631 688 l 497 688 l 538 843 q 507 886 550 886 l 468 886 q 413 842 424 886 l 361 640 q 363 603 354 613 q 386 585 371 594 l 511 485 q 549 431 544 461 q 542 349 554 401 l 499 154 q 427 35 476 69 q 297 0 378 0 l 215 0 q 103 183 54 0 l 122 260 l 256 260 l 228 153 z "},"T":{"ha":417,"x_min":142,"x_max":660,"o":"m 504 886 l 275 0 l 142 0 l 371 886 l 243 886 l 271 997 l 660 997 l 632 886 l 504 886 z "},"U":{"ha":544,"x_min":63,"x_max":739,"o":"m 739 997 l 531 189 q 447 47 507 93 q 292 0 386 0 l 251 0 q 111 190 63 0 l 319 997 l 453 997 l 243 186 q 285 121 225 121 l 318 121 q 396 186 378 121 l 606 997 l 739 997 z "},"V":{"ha":521,"x_min":175,"x_max":751,"o":"m 751 997 l 333 0 l 175 0 l 271 997 l 403 997 l 314 236 l 619 997 l 751 997 z "},"W":{"ha":785,"x_min":160,"x_max":1015,"o":"m 304 0 l 160 0 l 269 997 l 401 997 l 303 250 l 590 997 l 694 997 l 596 250 l 883 997 l 1015 997 l 611 0 l 467 0 l 533 578 l 304 0 z "},"X":{"ha":458,"x_min":14,"x_max":688,"o":"m 433 508 l 444 0 l 325 0 l 319 349 l 317 349 l 133 0 l 14 0 l 285 508 l 285 997 l 406 997 l 401 671 l 404 671 l 567 997 l 688 997 l 433 508 z "},"Y":{"ha":486,"x_min":178,"x_max":729,"o":"m 396 564 l 597 997 l 729 997 l 397 339 l 311 0 l 178 0 l 272 367 l 271 997 l 403 997 l 392 564 l 396 564 z "},"Z":{"ha":421,"x_min":58,"x_max":618,"o":"m 414 111 l 386 0 l 63 0 l 58 96 l 478 885 l 285 885 l 314 997 l 608 997 l 618 903 l 203 111 l 414 111 z "},"[":{"ha":313,"x_min":69,"x_max":542,"o":"m 69 0 l 326 997 l 542 997 l 517 899 l 417 899 l 210 99 l 310 99 l 285 0 l 69 0 z "},"\\":{"ha":371,"x_min":261,"x_max":367,"o":"m 356 1067 l 367 -69 l 274 -69 l 261 1067 l 356 1067 z "},"]":{"ha":313,"x_min":28,"x_max":500,"o":"m 28 0 l 53 99 l 153 99 l 360 899 l 260 899 l 285 997 l 500 997 l 243 0 l 28 0 z "},"_":{"ha":382,"x_min":-39,"x_max":396,"o":"m -39 -99 l -14 0 l 396 0 l 369 -99 l -39 -99 z "},"`":{"ha":269,"x_min":285,"x_max":425,"o":"m 331 767 l 285 944 l 407 944 l 425 767 l 331 767 z "},"{":{"ha":351,"x_min":106,"x_max":617,"o":"m 286 583 q 343 464 367 557 l 267 167 q 307 96 247 96 l 347 96 l 324 0 l 261 0 q 150 171 106 0 l 224 451 q 163 524 242 524 l 192 636 q 289 708 271 636 l 356 965 q 554 1136 401 1136 l 617 1136 l 592 1040 l 551 1040 q 474 969 492 1040 l 401 690 q 286 583 378 601 z "},"|":{"ha":289,"x_min":61,"x_max":485,"o":"m 61 -139 l 390 1136 l 485 1136 l 156 -139 l 61 -139 z "},"}":{"ha":351,"x_min":28,"x_max":539,"o":"m 369 597 q 310 704 286 615 l 378 969 q 336 1040 396 1040 l 296 1040 l 321 1136 l 383 1136 q 493 965 539 1136 l 431 722 q 492 650 413 650 l 463 538 q 364 465 382 538 l 288 171 q 90 0 243 0 l 28 0 l 51 96 l 92 96 q 171 167 151 96 l 251 478 q 369 597 275 571 z "},"‚":{"ha":224,"x_min":-32,"x_max":208,"o":"m 11 -28 l 60 160 l 153 160 q 194 104 208 160 l 160 -28 l 47 -207 l -32 -207 l 76 -28 l 11 -28 z "},"ƒ":{"ha":468,"x_min":-14,"x_max":693,"o":"m 229 579 l 271 688 l 326 688 l 389 856 q 421 922 406 894 q 456 965 436 949 q 503 990 476 982 q 569 997 531 997 l 693 997 l 650 881 l 565 881 q 508 838 525 881 l 451 688 l 576 688 l 535 579 l 410 579 l 243 142 q 211 74 226 101 q 176 31 196 47 q 129 7 156 14 q 65 0 103 0 l -14 0 l 29 117 l 72 117 q 126 161 107 117 l 285 579 l 229 579 z "},"„":{"ha":443,"x_min":-18,"x_max":443,"o":"m 246 -28 l 294 160 l 388 160 q 429 104 443 160 l 394 -28 l 282 -207 l 201 -207 l 311 -28 l 246 -28 m 25 -28 l 74 160 l 167 160 q 208 104 222 160 l 174 -28 l 61 -207 l -18 -207 l 90 -28 l 25 -28 z "},"†":{"ha":497,"x_min":182,"x_max":672,"o":"m 483 656 l 314 0 l 182 0 l 351 656 l 197 656 l 231 785 l 385 785 l 439 997 l 571 997 l 517 785 l 672 785 l 639 656 l 483 656 z "},"‡":{"ha":497,"x_min":85,"x_max":672,"o":"m 272 354 l 351 656 l 197 656 l 231 785 l 385 785 l 439 997 l 571 997 l 517 785 l 672 785 l 639 656 l 483 656 l 404 354 l 560 354 l 526 225 l 371 225 l 314 0 l 182 0 l 239 225 l 85 225 l 118 354 l 272 354 z "},"ˆ":{"ha":444,"x_min":260,"x_max":582,"o":"m 442 861 l 363 781 l 260 781 l 419 936 l 503 936 l 582 781 l 479 781 l 442 861 z "},"‰":{"ha":1369,"x_min":175,"x_max":1451,"o":"m 1271 446 q 1232 414 1240 446 l 1154 118 q 1178 86 1147 86 l 1199 86 q 1238 118 1231 86 l 1315 414 q 1292 446 1324 446 l 1271 446 m 863 446 q 831 424 836 446 l 750 111 q 769 86 743 86 l 800 86 q 833 111 826 86 l 914 424 q 893 446 919 446 l 863 446 m 421 910 q 390 888 396 910 l 310 575 q 328 550 303 550 l 358 550 q 393 575 386 550 l 474 888 q 451 910 479 910 l 421 910 m 856 997 l 940 997 l 367 0 l 282 0 l 856 997 m 294 464 q 206 582 175 464 l 282 879 q 432 997 313 997 l 486 997 q 576 879 607 997 l 500 582 q 349 464 469 464 l 294 464 m 736 0 q 646 118 617 0 l 724 415 q 874 533 754 533 l 928 533 q 1018 415 1049 533 l 940 118 q 790 0 911 0 l 736 0 m 1139 0 q 1049 118 1019 0 l 1126 415 q 1276 533 1157 533 l 1331 533 q 1421 415 1451 533 l 1343 118 q 1193 0 1314 0 l 1139 0 z "},"‹":{"ha":304,"x_min":153,"x_max":447,"o":"m 271 483 l 326 250 l 211 250 l 153 483 l 332 717 l 447 717 l 271 483 z "},"Œ":{"ha":743,"x_min":54,"x_max":972,"o":"m 364 121 q 432 181 418 121 l 597 817 q 553 876 611 876 l 474 876 q 400 818 414 876 l 235 179 q 279 121 219 121 l 364 121 m 746 121 l 715 0 l 215 0 q 99 171 54 0 l 268 826 q 472 997 314 997 l 972 997 l 942 875 l 744 875 l 665 574 l 840 574 l 810 453 l 635 453 l 549 121 l 746 121 z "},"‘":{"ha":224,"x_min":206,"x_max":447,"o":"m 447 999 l 336 819 l 401 819 l 353 632 l 260 632 q 219 688 206 632 l 253 819 l 367 999 l 447 999 z "},"’":{"ha":210,"x_min":183,"x_max":425,"o":"m 183 632 l 294 811 l 229 811 l 278 999 l 371 999 q 411 943 425 999 l 378 811 l 264 632 l 183 632 z "},"“":{"ha":443,"x_min":206,"x_max":667,"o":"m 447 999 l 336 819 l 401 819 l 353 632 l 260 632 q 219 688 206 632 l 253 819 l 367 999 l 447 999 m 667 999 l 556 819 l 621 819 l 572 632 l 479 632 q 439 688 425 632 l 472 819 l 586 999 l 667 999 z "},"”":{"ha":443,"x_min":197,"x_max":660,"o":"m 418 632 l 529 811 l 464 811 l 513 999 l 606 999 q 646 943 660 999 l 613 811 l 499 632 l 418 632 m 197 632 l 308 811 l 243 811 l 292 999 l 385 999 q 425 943 439 999 l 392 811 l 278 632 l 197 632 z "},"•":{"ha":267,"x_min":104,"x_max":353,"o":"m 353 657 l 288 404 l 104 404 l 169 657 l 353 657 z "},"–":{"ha":410,"x_min":115,"x_max":550,"o":"m 115 447 l 140 546 l 550 546 l 525 447 l 115 447 z "},"—":{"ha":653,"x_min":115,"x_max":793,"o":"m 115 447 l 140 546 l 793 546 l 768 447 l 115 447 z "},"˜":{"ha":408,"x_min":256,"x_max":589,"o":"m 589 913 q 531 819 571 850 q 449 788 492 789 q 422 792 433 788 q 402 801 411 796 q 384 811 393 807 q 365 815 375 815 q 324 781 338 815 l 256 781 q 308 869 271 840 q 385 901 344 899 q 409 897 399 901 q 429 888 419 893 q 449 878 439 882 q 471 874 458 874 q 498 885 486 876 q 517 913 510 894 l 589 913 z "},"™":{"ha":824,"x_min":239,"x_max":1025,"o":"m 460 911 l 344 464 l 239 464 l 354 911 l 276 911 l 299 997 l 561 997 l 539 911 l 460 911 m 746 997 l 628 997 l 490 464 l 596 464 l 675 797 l 679 550 l 743 550 l 875 797 l 782 464 l 888 464 l 1025 997 l 907 997 l 746 685 l 746 997 z "},"›":{"ha":304,"x_min":106,"x_max":401,"o":"m 283 483 l 226 717 l 342 717 l 401 483 l 221 250 l 106 250 l 283 483 z "},"¡":{"ha":271,"x_min":64,"x_max":463,"o":"m 278 828 l 321 997 l 463 997 l 419 828 l 278 828 m 64 0 l 268 728 l 381 728 l 211 0 l 64 0 z "},"¢":{"ha":496,"x_min":106,"x_max":663,"o":"m 490 710 l 503 761 q 460 815 517 815 l 447 815 q 376 761 390 815 l 271 351 q 314 297 256 297 l 326 297 q 397 351 382 297 l 410 399 l 529 399 l 514 340 q 344 199 476 199 l 340 199 l 318 115 l 221 115 l 243 199 l 240 199 q 143 340 106 199 l 254 772 q 424 914 292 914 l 428 914 l 449 997 l 546 997 l 525 914 l 529 914 q 625 772 663 914 l 610 710 l 490 710 z "},"£":{"ha":597,"x_min":42,"x_max":779,"o":"m 592 250 l 528 0 l 42 0 l 72 121 l 122 121 l 208 456 l 158 456 l 186 563 l 236 563 l 304 826 q 508 997 350 997 l 617 997 q 733 826 779 997 l 715 753 l 582 753 l 599 818 q 553 876 613 876 l 510 876 q 436 818 450 876 l 369 563 l 536 563 l 494 456 l 342 456 l 256 121 l 425 121 l 458 250 l 592 250 z "},"¤":{"ha":510,"x_min":61,"x_max":726,"o":"m 390 414 l 303 414 l 239 169 q 276 111 224 111 l 310 111 q 378 169 363 111 l 401 261 l 535 261 l 511 169 q 308 0 467 0 l 222 0 q 106 169 61 0 l 169 414 l 121 414 l 139 483 l 188 483 l 201 539 l 153 539 l 171 608 l 219 608 l 276 828 q 479 997 321 997 l 565 997 q 682 828 726 997 l 646 688 l 513 688 l 549 828 q 504 886 563 886 l 478 886 q 410 828 424 886 l 353 608 l 510 608 l 467 539 l 335 539 l 321 483 l 433 483 l 390 414 z "},"¥":{"ha":542,"x_min":139,"x_max":757,"o":"m 433 367 l 574 367 l 556 297 l 415 297 l 339 0 l 206 0 l 282 297 l 139 297 l 157 367 l 300 367 l 299 422 l 171 422 l 189 492 l 299 492 l 299 997 l 431 997 l 415 550 l 419 550 l 625 997 l 757 997 l 497 492 l 606 492 l 588 422 l 461 422 l 433 367 z "},"§":{"ha":475,"x_min":54,"x_max":678,"o":"m 428 522 q 388 575 440 575 q 317 522 329 575 l 307 485 q 350 431 292 431 q 418 485 403 431 l 428 522 m 504 799 l 517 844 q 478 899 531 899 q 407 844 421 899 l 379 740 q 382 715 375 721 q 404 700 389 708 l 489 664 q 524 648 508 656 q 551 631 540 640 q 564 606 561 621 q 561 565 567 590 l 535 465 q 467 382 519 407 q 492 351 489 367 q 489 311 496 336 l 446 142 q 276 0 408 0 l 189 0 q 92 142 54 0 l 111 217 l 232 217 l 215 151 q 257 97 200 97 q 325 151 310 97 l 350 247 q 353 283 356 269 q 325 308 350 297 l 243 342 q 183 374 207 353 q 169 439 158 394 l 194 535 q 260 624 211 600 q 240 655 244 639 q 243 694 236 671 l 285 856 q 454 997 322 997 l 543 997 q 640 856 678 997 l 625 799 l 504 799 z "},"¨":{"ha":389,"x_min":243,"x_max":585,"o":"m 390 919 l 354 781 l 243 781 l 279 919 l 390 919 m 585 919 l 549 781 l 438 781 l 474 919 l 585 919 z "},"©":{"ha":825,"x_min":82,"x_max":999,"o":"m 631 626 l 651 707 q 628 746 660 740 l 592 746 q 544 707 554 746 l 438 294 q 464 251 428 251 l 500 251 q 549 294 539 251 l 565 357 l 676 357 l 661 297 q 490 156 624 156 l 418 156 q 322 297 285 156 l 426 700 q 596 842 464 842 l 664 842 q 761 700 799 842 l 742 626 l 631 626 m 579 58 q 721 179 689 58 l 886 817 q 807 939 917 939 l 499 939 q 360 817 390 939 l 194 179 q 271 58 163 58 l 579 58 m 260 0 q 132 190 82 0 l 294 818 q 517 997 340 997 l 822 997 q 953 818 999 997 l 790 190 q 565 0 740 0 l 260 0 z "},"ª":{"ha":411,"x_min":175,"x_max":613,"o":"m 439 735 l 476 875 q 450 911 485 911 l 431 911 q 388 875 396 911 l 350 735 l 439 735 m 281 464 l 175 464 l 282 875 q 431 997 313 997 l 494 997 q 582 875 613 997 l 475 464 l 369 464 l 417 649 l 328 649 l 281 464 z "},"«":{"ha":513,"x_min":153,"x_max":656,"o":"m 271 483 l 326 250 l 211 250 l 153 483 l 332 717 l 447 717 l 271 483 m 479 483 l 535 250 l 419 250 l 361 483 l 540 717 l 656 717 l 479 483 z "},"¬":{"ha":578,"x_min":165,"x_max":651,"o":"m 165 417 l 196 533 l 651 533 l 588 289 l 467 289 l 500 417 l 165 417 z "},"®":{"ha":636,"x_min":132,"x_max":825,"o":"m 443 631 l 486 631 q 528 669 518 631 l 554 768 q 532 806 563 806 l 489 806 l 443 631 m 542 358 l 461 358 l 468 558 l 425 558 l 372 358 l 283 358 l 419 882 l 593 882 q 649 794 669 882 l 610 646 q 544 564 593 583 l 542 358 m 508 288 q 614 379 590 288 l 739 860 q 681 951 761 951 l 447 951 q 340 860 363 951 l 215 379 q 275 288 192 288 l 508 288 m 263 243 q 167 378 132 243 l 292 861 q 458 997 328 997 l 692 997 q 789 861 825 997 l 664 378 q 497 243 629 243 l 263 243 z "},"¯":{"ha":417,"x_min":257,"x_max":617,"o":"m 257 836 l 283 935 l 617 935 l 590 836 l 257 836 z "},"°":{"ha":381,"x_min":247,"x_max":568,"o":"m 326 857 q 336 799 318 824 q 389 775 354 775 q 453 799 422 775 q 493 857 485 824 q 484 917 503 893 q 432 942 465 942 q 367 917 397 942 q 326 857 336 893 m 263 857 q 289 915 271 888 q 333 962 307 942 q 388 994 358 982 q 449 1006 418 1006 q 503 994 479 1006 q 543 962 528 982 q 563 915 558 942 q 560 857 568 888 q 533 798 551 825 q 488 751 514 771 q 432 720 463 732 q 371 708 401 708 q 278 751 308 708 q 263 857 247 794 z "},"±":{"ha":557,"x_min":69,"x_max":628,"o":"m 69 0 l 99 118 l 515 118 l 486 0 l 69 0 m 456 431 l 415 275 l 293 275 l 333 431 l 181 431 l 210 547 l 363 547 l 404 708 l 526 708 l 485 547 l 628 547 l 599 431 l 456 431 z "},"´":{"ha":269,"x_min":239,"x_max":471,"o":"m 333 767 l 239 767 l 349 944 l 471 944 l 333 767 z "},"µ":{"ha":433,"x_min":210,"x_max":583,"o":"m 469 911 l 463 911 l 322 657 l 390 657 l 469 911 m 474 571 l 446 464 l 340 464 l 368 571 l 210 571 l 218 656 l 428 997 l 583 997 l 496 657 l 554 657 l 532 571 l 474 571 z "},"¶":{"ha":651,"x_min":178,"x_max":839,"o":"m 447 -139 l 715 897 l 481 897 q 401 825 419 897 l 358 657 q 399 585 340 585 l 453 585 l 514 818 l 622 818 l 375 -139 l 267 -139 l 424 472 l 329 472 q 224 650 178 472 l 268 826 q 465 997 314 997 l 839 997 l 546 -139 l 447 -139 z "},"·":{"ha":225,"x_min":156,"x_max":342,"o":"m 342 558 l 297 389 l 156 389 l 200 558 l 342 558 z "},"¸":{"ha":308,"x_min":3,"x_max":228,"o":"m 19 -190 l 83 -190 q 126 -157 118 -190 l 132 -137 q 107 -99 142 -99 l 51 -99 l 86 36 l 158 36 l 138 -43 l 150 -43 q 206 -124 228 -43 l 193 -176 q 94 -253 172 -251 l 3 -253 l 19 -190 z "},"º":{"ha":406,"x_min":175,"x_max":607,"o":"m 426 910 q 388 878 396 910 l 311 582 q 333 550 303 550 l 354 550 q 394 582 386 550 l 471 878 q 447 910 479 910 l 426 910 m 294 464 q 206 582 175 464 l 282 879 q 432 997 313 997 l 486 997 q 576 879 607 997 l 500 582 q 349 464 469 464 l 294 464 z "},"»":{"ha":513,"x_min":106,"x_max":610,"o":"m 492 483 l 435 717 l 550 717 l 610 483 l 429 250 l 314 250 l 492 483 m 283 483 l 226 717 l 342 717 l 401 483 l 221 250 l 106 250 l 283 483 z "},"¿":{"ha":522,"x_min":54,"x_max":613,"o":"m 428 828 l 471 997 l 613 997 l 569 828 l 428 828 m 542 728 l 499 560 q 486 522 492 536 q 473 498 481 508 q 455 479 465 488 q 428 461 444 471 l 314 390 q 287 365 294 376 q 272 325 279 353 l 236 186 q 264 122 219 122 l 329 122 q 401 186 385 122 l 410 219 l 543 219 l 531 171 q 333 0 486 0 l 208 0 q 99 171 54 0 l 151 374 q 164 411 157 396 q 179 437 171 426 q 198 455 188 447 q 224 472 208 463 l 336 544 q 363 569 356 557 q 378 608 371 581 l 408 728 l 542 728 z "},"Æ":{"ha":707,"x_min":56,"x_max":929,"o":"m 467 486 l 568 876 l 474 876 q 400 818 414 876 l 314 486 l 467 486 m 189 0 l 56 0 l 268 826 q 472 997 314 997 l 929 997 l 899 876 l 701 876 l 622 574 l 797 574 l 767 453 l 592 453 l 506 121 l 703 121 l 672 0 l 342 0 l 436 365 l 283 365 l 189 0 z "},"Ø":{"ha":558,"x_min":65,"x_max":751,"o":"m 543 876 l 474 876 q 400 818 414 876 l 238 189 l 543 876 m 268 121 l 347 121 q 415 179 400 121 l 581 821 l 268 121 m 697 1081 l 657 990 q 715 826 751 964 l 546 169 q 342 0 501 0 l 215 0 l 178 -83 l 115 -83 l 156 7 q 99 169 65 36 l 268 826 q 472 997 314 997 l 597 997 l 635 1081 l 697 1081 z "},"ß":{"ha":586,"x_min":63,"x_max":740,"o":"m 278 121 l 389 121 q 457 179 442 121 l 508 376 q 475 431 521 431 l 422 431 q 401 441 410 431 q 397 468 393 451 l 428 586 q 442 611 431 599 q 472 624 454 624 q 500 631 488 624 q 519 663 513 638 l 558 815 q 518 876 575 876 l 476 876 q 406 815 422 876 l 196 0 l 63 0 l 276 831 q 472 997 319 997 l 578 997 q 696 828 740 997 l 656 672 q 611 569 638 604 q 535 531 585 533 l 533 524 q 640 372 678 519 l 581 142 q 393 0 543 0 l 247 0 l 278 121 z "},"÷":{"ha":611,"x_min":142,"x_max":714,"o":"m 461 328 l 417 157 l 275 157 l 319 328 l 461 328 m 583 804 l 540 633 l 399 633 l 442 804 l 583 804 m 142 417 l 172 536 l 714 536 l 683 417 l 142 417 z "},"ı":{"ha":258,"x_min":63,"x_max":453,"o":"m 63 0 l 319 997 l 453 997 l 196 0 l 63 0 z "},"ˇ":{"ha":444,"x_min":303,"x_max":625,"o":"m 443 856 l 522 936 l 625 936 l 465 781 l 382 781 l 303 936 l 406 936 l 443 856 z "},"˘":{"ha":378,"x_min":285,"x_max":569,"o":"m 372 935 q 377 881 369 899 q 411 863 385 863 q 453 881 433 863 q 488 935 474 899 l 569 935 q 531 865 553 894 q 485 817 510 836 q 436 790 461 799 q 390 781 411 781 q 344 790 365 781 q 310 817 324 799 q 290 865 296 836 q 292 935 285 894 l 372 935 z "},"˙":{"ha":222,"x_min":240,"x_max":426,"o":"m 426 950 l 382 781 l 240 781 l 285 950 l 426 950 z "},"˚":{"ha":299,"x_min":256,"x_max":489,"o":"m 419 851 q 415 886 425 872 q 385 900 404 900 q 348 886 365 900 q 325 851 331 872 q 330 817 319 831 q 360 803 340 803 q 397 817 379 803 q 419 851 414 831 m 476 851 q 427 775 465 806 q 344 744 389 744 q 279 775 303 744 q 267 851 256 806 q 319 929 279 899 q 400 960 358 960 q 467 929 444 960 q 476 851 489 899 z "},"˛":{"ha":303,"x_min":3,"x_max":253,"o":"m 253 33 q 153 -44 182 -12 q 114 -108 124 -75 q 150 -154 103 -154 q 218 -133 176 -154 l 193 -229 q 106 -247 151 -247 q 29 -216 56 -247 q 15 -133 3 -185 q 28 -96 19 -115 q 54 -56 38 -76 q 99 -14 71 -36 q 169 33 126 8 l 253 33 z "},"˝":{"ha":472,"x_min":251,"x_max":671,"o":"m 339 781 l 251 781 l 375 964 l 494 964 l 339 781 m 514 781 l 426 781 l 551 964 l 671 964 l 514 781 z "},"⁄":{"ha":421,"x_min":-21,"x_max":700,"o":"m 76 -83 l -21 -83 l 600 1081 l 700 1081 l 76 -83 z "},"…":{"ha":869,"x_min":56,"x_max":857,"o":"m 549 169 l 506 0 l 364 0 l 407 169 l 549 169 m 857 169 l 814 0 l 672 0 l 715 169 l 857 169 m 240 169 l 197 0 l 56 0 l 99 169 l 240 169 z "},"Ÿ":{"ha":486,"x_min":178,"x_max":729,"o":"m 706 1201 l 669 1063 l 558 1063 l 594 1201 l 706 1201 m 511 1201 l 475 1063 l 364 1063 l 400 1201 l 511 1201 m 396 564 l 597 997 l 729 997 l 406 367 l 311 0 l 178 0 l 272 367 l 271 997 l 403 997 l 392 564 l 396 564 z "},"Á":{"ha":531,"x_min":56,"x_max":733,"o":"m 588 1049 l 493 1049 l 603 1226 l 725 1226 l 588 1049 m 467 486 l 553 818 q 510 876 567 876 l 474 876 q 400 818 414 876 l 314 486 l 467 486 m 189 0 l 56 0 l 268 826 q 472 997 314 997 l 572 997 q 688 826 733 997 l 475 0 l 342 0 l 436 365 l 283 365 l 189 0 z "},"À":{"ha":531,"x_min":56,"x_max":733,"o":"m 506 1060 l 460 1238 l 582 1238 l 600 1060 l 506 1060 m 467 486 l 553 818 q 510 876 567 876 l 474 876 q 400 818 414 876 l 314 486 l 467 486 m 189 0 l 56 0 l 268 826 q 472 997 314 997 l 572 997 q 688 826 733 997 l 475 0 l 342 0 l 436 365 l 283 365 l 189 0 z "},"Â":{"ha":531,"x_min":56,"x_max":733,"o":"m 564 1143 l 483 1063 l 381 1063 l 540 1218 l 624 1218 l 703 1063 l 600 1063 l 564 1143 m 467 486 l 553 818 q 510 876 567 876 l 474 876 q 400 818 414 876 l 314 486 l 467 486 m 189 0 l 56 0 l 268 826 q 472 997 314 997 l 572 997 q 688 826 733 997 l 475 0 l 342 0 l 436 365 l 283 365 l 189 0 z "},"Ä":{"ha":531,"x_min":56,"x_max":733,"o":"m 536 1201 l 500 1063 l 389 1063 l 425 1201 l 536 1201 m 731 1201 l 694 1063 l 583 1063 l 619 1201 l 731 1201 m 467 486 l 553 818 q 510 876 567 876 l 474 876 q 400 818 414 876 l 314 486 l 467 486 m 189 0 l 56 0 l 268 826 q 472 997 314 997 l 572 997 q 688 826 733 997 l 475 0 l 342 0 l 436 365 l 283 365 l 189 0 z "},"Ã":{"ha":531,"x_min":56,"x_max":733,"o":"m 731 1194 q 674 1101 714 1132 q 592 1069 633 1071 q 565 1074 576 1069 q 545 1083 554 1078 q 527 1093 536 1089 q 508 1097 518 1097 q 465 1063 482 1097 l 397 1063 q 449 1151 413 1122 q 528 1183 486 1181 q 552 1179 542 1183 q 572 1169 563 1175 q 592 1160 582 1164 q 614 1156 601 1156 q 641 1167 629 1158 q 658 1194 653 1176 l 731 1194 m 467 486 l 553 818 q 510 876 567 876 l 474 876 q 400 818 414 876 l 314 486 l 467 486 m 189 0 l 56 0 l 268 826 q 472 997 314 997 l 572 997 q 688 826 733 997 l 475 0 l 342 0 l 436 365 l 283 365 l 189 0 z "},"Å":{"ha":531,"x_min":56,"x_max":733,"o":"m 608 1133 q 603 1168 614 1154 q 574 1182 593 1182 q 537 1168 554 1182 q 514 1133 519 1154 q 519 1099 508 1113 q 549 1085 529 1085 q 585 1099 568 1085 q 608 1133 603 1113 m 665 1133 q 615 1057 653 1088 q 533 1026 578 1026 q 467 1057 492 1026 q 456 1133 443 1088 q 475 1176 461 1157 q 507 1210 489 1196 q 547 1233 525 1225 q 589 1242 568 1242 q 655 1211 633 1242 q 665 1133 676 1181 m 467 486 l 553 818 q 510 876 567 876 l 474 876 q 400 818 414 876 l 314 486 l 467 486 m 189 0 l 56 0 l 268 826 q 472 997 314 997 l 572 997 q 688 826 733 997 l 475 0 l 342 0 l 436 365 l 283 365 l 189 0 z "},"Ì":{"ha":258,"x_min":63,"x_max":467,"o":"m 372 1049 l 326 1226 l 449 1226 l 467 1049 l 372 1049 m 63 0 l 319 997 l 453 997 l 196 0 l 63 0 z "},"Í":{"ha":258,"x_min":63,"x_max":581,"o":"m 443 1049 l 349 1049 l 458 1226 l 581 1226 l 443 1049 m 63 0 l 319 997 l 453 997 l 196 0 l 63 0 z "},"Î":{"ha":258,"x_min":63,"x_max":564,"o":"m 425 1143 l 344 1063 l 242 1063 l 401 1218 l 485 1218 l 564 1063 l 461 1063 l 425 1143 m 63 0 l 319 997 l 453 997 l 196 0 l 63 0 z "},"Ï":{"ha":258,"x_min":63,"x_max":592,"o":"m 592 1201 l 556 1063 l 444 1063 l 481 1201 l 592 1201 m 397 1201 l 361 1063 l 250 1063 l 286 1201 l 397 1201 m 63 0 l 319 997 l 453 997 l 196 0 l 63 0 z "},"Ñ":{"ha":535,"x_min":63,"x_max":739,"o":"m 739 1194 q 682 1101 722 1132 q 600 1069 642 1071 q 574 1074 585 1069 q 553 1083 563 1078 q 535 1093 544 1089 q 517 1097 526 1097 q 474 1063 490 1097 l 406 1063 q 458 1151 421 1122 q 536 1183 494 1181 q 560 1179 550 1183 q 581 1169 571 1175 q 600 1160 590 1164 q 622 1156 610 1156 q 649 1167 638 1158 q 667 1194 661 1176 l 739 1194 m 596 997 l 729 997 l 472 0 l 339 0 l 390 199 l 364 653 l 196 0 l 63 0 l 319 997 l 453 997 l 472 515 l 596 997 z "},"Ó":{"ha":558,"x_min":61,"x_max":754,"o":"m 593 1049 l 499 1049 l 608 1226 l 731 1226 l 593 1049 m 344 111 q 404 163 390 111 l 578 835 q 539 886 592 886 l 476 886 q 411 835 425 886 l 238 163 q 276 111 224 111 l 344 111 m 224 0 q 106 169 61 0 l 275 826 q 479 997 321 997 l 593 997 q 708 826 754 997 l 539 169 q 335 0 494 0 l 224 0 z "},"Ò":{"ha":558,"x_min":61,"x_max":754,"o":"m 514 1049 l 468 1226 l 590 1226 l 608 1049 l 514 1049 m 344 111 q 404 163 390 111 l 578 835 q 539 886 592 886 l 476 886 q 411 835 425 886 l 238 163 q 276 111 224 111 l 344 111 m 224 0 q 106 169 61 0 l 275 826 q 479 997 321 997 l 593 997 q 708 826 754 997 l 539 169 q 335 0 494 0 l 224 0 z "},"Ô":{"ha":558,"x_min":61,"x_max":754,"o":"m 575 1143 l 494 1063 l 392 1063 l 551 1218 l 635 1218 l 714 1063 l 611 1063 l 575 1143 m 344 111 q 404 163 390 111 l 578 835 q 539 886 592 886 l 476 886 q 411 835 425 886 l 238 163 q 276 111 224 111 l 344 111 m 224 0 q 106 169 61 0 l 275 826 q 479 997 321 997 l 593 997 q 708 826 754 997 l 539 169 q 335 0 494 0 l 224 0 z "},"Õ":{"ha":558,"x_min":61,"x_max":754,"o":"m 729 1186 q 671 1093 711 1124 q 589 1061 631 1063 q 563 1065 574 1061 q 542 1075 551 1069 q 524 1085 533 1081 q 506 1089 515 1089 q 464 1054 478 1089 l 396 1054 q 448 1143 411 1114 q 525 1175 485 1172 q 549 1171 539 1175 q 569 1161 560 1167 q 589 1151 579 1156 q 611 1147 599 1147 q 638 1159 626 1150 q 657 1186 650 1168 l 729 1186 m 344 111 q 404 163 390 111 l 578 835 q 539 886 592 886 l 476 886 q 411 835 425 886 l 238 163 q 276 111 224 111 l 344 111 m 224 0 q 106 169 61 0 l 275 826 q 479 997 321 997 l 593 997 q 708 826 754 997 l 539 169 q 335 0 494 0 l 224 0 z "},"Ö":{"ha":558,"x_min":61,"x_max":754,"o":"m 543 1201 l 507 1063 l 396 1063 l 432 1201 l 543 1201 m 738 1201 l 701 1063 l 590 1063 l 626 1201 l 738 1201 m 344 111 q 404 163 390 111 l 578 835 q 539 886 592 886 l 476 886 q 411 835 425 886 l 238 163 q 276 111 224 111 l 344 111 m 224 0 q 106 169 61 0 l 275 826 q 479 997 321 997 l 593 997 q 708 826 754 997 l 539 169 q 335 0 494 0 l 224 0 z "},"Ú":{"ha":544,"x_min":63,"x_max":739,"o":"m 582 1049 l 488 1049 l 597 1226 l 719 1226 l 582 1049 m 739 997 l 531 189 q 292 0 481 0 l 251 0 q 111 190 63 0 l 319 997 l 453 997 l 243 186 q 285 121 225 121 l 318 121 q 396 186 378 121 l 606 997 l 739 997 z "},"Ù":{"ha":544,"x_min":63,"x_max":739,"o":"m 501 1049 l 456 1226 l 578 1226 l 596 1049 l 501 1049 m 739 997 l 531 189 q 292 0 481 0 l 251 0 q 111 190 63 0 l 319 997 l 453 997 l 243 186 q 285 121 225 121 l 318 121 q 396 186 378 121 l 606 997 l 739 997 z "},"Ü":{"ha":544,"x_min":63,"x_max":742,"o":"m 742 1201 l 706 1063 l 594 1063 l 631 1201 l 742 1201 m 547 1201 l 511 1063 l 400 1063 l 436 1201 l 547 1201 m 739 997 l 531 189 q 292 0 481 0 l 251 0 q 111 190 63 0 l 319 997 l 453 997 l 243 186 q 285 121 225 121 l 318 121 q 396 186 378 121 l 606 997 l 739 997 z "},"Û":{"ha":544,"x_min":63,"x_max":739,"o":"m 575 1143 l 494 1063 l 392 1063 l 551 1218 l 635 1218 l 714 1063 l 611 1063 l 575 1143 m 739 997 l 531 189 q 292 0 481 0 l 251 0 q 111 190 63 0 l 319 997 l 453 997 l 243 186 q 285 121 225 121 l 318 121 q 396 186 378 121 l 606 997 l 739 997 z "},"É":{"ha":399,"x_min":63,"x_max":651,"o":"m 514 1049 l 419 1049 l 529 1226 l 651 1226 l 514 1049 m 63 0 l 319 997 l 614 997 l 586 886 l 425 886 l 336 546 l 497 546 l 469 435 l 308 435 l 224 111 l 385 111 l 357 0 l 63 0 z "},"È":{"ha":399,"x_min":63,"x_max":614,"o":"m 442 1049 l 396 1226 l 518 1226 l 536 1049 l 442 1049 m 63 0 l 319 997 l 614 997 l 586 886 l 425 886 l 336 546 l 497 546 l 469 435 l 308 435 l 224 111 l 385 111 l 357 0 l 63 0 z "},"Ë":{"ha":399,"x_min":63,"x_max":672,"o":"m 672 1201 l 636 1063 l 525 1063 l 561 1201 l 672 1201 m 478 1201 l 442 1063 l 331 1063 l 367 1201 l 478 1201 m 63 0 l 319 997 l 614 997 l 586 886 l 425 886 l 336 546 l 497 546 l 469 435 l 308 435 l 224 111 l 385 111 l 357 0 l 63 0 z "},"Ê":{"ha":399,"x_min":63,"x_max":639,"o":"m 500 1143 l 419 1063 l 317 1063 l 476 1218 l 560 1218 l 639 1063 l 536 1063 l 500 1143 m 63 0 l 319 997 l 614 997 l 586 886 l 425 886 l 336 546 l 497 546 l 469 435 l 308 435 l 224 111 l 385 111 l 357 0 l 63 0 z "},"Ç":{"ha":503,"x_min":61,"x_max":726,"o":"m 158 -190 l 222 -190 q 265 -157 257 -190 l 271 -137 q 246 -99 281 -99 l 190 -99 l 217 0 q 106 169 61 3 l 276 828 q 479 997 321 997 l 565 997 q 682 828 726 997 l 646 688 l 513 688 l 549 828 q 504 886 563 886 l 478 886 q 410 828 424 886 l 239 169 q 276 111 224 111 l 310 111 q 378 169 363 111 l 401 261 l 535 261 l 511 169 q 308 0 467 0 l 289 0 l 276 -43 l 289 -43 q 344 -124 367 -43 l 332 -176 q 233 -253 311 -251 l 142 -253 l 158 -190 z "},"ﬁ":{"ha":658,"x_min":63,"x_max":853,"o":"m 463 0 l 689 876 l 422 876 l 343 574 l 518 574 l 488 453 l 313 453 l 196 0 l 63 0 l 319 997 l 853 997 l 596 0 l 463 0 z "},"ﬂ":{"ha":793,"x_min":63,"x_max":853,"o":"m 779 0 l 463 0 l 689 876 l 422 876 l 343 574 l 518 574 l 488 453 l 313 453 l 196 0 l 63 0 l 319 997 l 853 997 l 626 121 l 810 121 l 779 0 z "},"æ":{"ha":700,"x_min":56,"x_max":929,"o":"m 467 486 l 568 876 l 474 876 q 400 818 414 876 l 314 486 l 467 486 m 189 0 l 56 0 l 268 826 q 472 997 314 997 l 929 997 l 899 876 l 701 876 l 622 574 l 797 574 l 767 453 l 592 453 l 506 121 l 703 121 l 672 0 l 342 0 l 436 365 l 283 365 l 189 0 z "},"œ":{"ha":743,"x_min":54,"x_max":972,"o":"m 364 121 q 432 181 418 121 l 597 817 q 553 876 611 876 l 474 876 q 400 818 414 876 l 235 179 q 279 121 219 121 l 364 121 m 746 121 l 715 0 l 215 0 q 99 171 54 0 l 268 826 q 472 997 314 997 l 972 997 l 942 875 l 744 875 l 665 574 l 840 574 l 810 453 l 635 453 l 549 121 l 746 121 z "},"a":{"ha":531,"x_min":56,"x_max":733,"o":"m 467 486 l 553 818 q 510 876 567 876 l 474 876 q 400 818 414 876 l 314 486 l 467 486 m 189 0 l 56 0 l 268 826 q 472 997 314 997 l 572 997 q 688 826 733 997 l 475 0 l 342 0 l 436 365 l 283 365 l 189 0 z "},"b":{"ha":531,"x_min":63,"x_max":711,"o":"m 336 546 l 396 546 q 451 560 435 546 q 478 611 468 575 l 531 814 q 490 886 549 886 l 425 886 l 336 546 m 224 111 l 335 111 q 388 154 378 111 l 442 364 q 382 435 460 435 l 308 435 l 224 111 m 513 493 q 581 465 565 490 q 581 386 596 439 l 519 149 q 497 83 510 111 q 464 37 485 56 q 411 9 443 18 q 331 0 379 0 l 63 0 l 319 997 l 533 997 q 665 817 711 997 l 610 606 q 575 533 597 561 q 513 493 553 504 z "},"c":{"ha":510,"x_min":61,"x_max":726,"o":"m 535 261 l 511 169 q 443 42 489 85 q 308 0 397 0 l 222 0 q 106 169 61 0 l 276 828 q 479 997 321 997 l 565 997 q 682 828 726 997 l 646 688 l 513 688 l 549 828 q 504 886 563 886 l 478 886 q 410 828 424 886 l 239 169 q 276 111 224 111 l 310 111 q 378 169 363 111 l 401 261 l 535 261 z "},"d":{"ha":538,"x_min":63,"x_max":718,"o":"m 226 121 l 326 121 q 369 133 354 121 q 390 165 385 146 l 556 804 q 515 876 574 876 l 422 876 l 226 121 m 319 997 l 551 997 q 682 956 646 997 q 694 819 718 915 l 518 144 q 322 0 482 0 l 63 0 l 319 997 z "},"e":{"ha":399,"x_min":63,"x_max":614,"o":"m 63 0 l 319 997 l 614 997 l 586 886 l 425 886 l 336 546 l 497 546 l 469 435 l 308 435 l 224 111 l 385 111 l 357 0 l 63 0 z "},"f":{"ha":399,"x_min":63,"x_max":614,"o":"m 497 546 l 469 435 l 308 435 l 196 0 l 63 0 l 319 997 l 614 997 l 586 886 l 425 886 l 336 546 l 497 546 z "},"g":{"ha":542,"x_min":61,"x_max":726,"o":"m 361 379 l 390 490 l 604 490 l 479 0 l 222 0 q 106 169 61 0 l 276 828 q 479 997 321 997 l 565 997 q 682 828 726 997 l 646 688 l 513 688 l 546 818 q 546 864 554 851 q 501 876 538 876 l 475 876 q 407 818 421 876 l 242 179 q 242 134 233 147 q 281 121 250 121 l 375 121 l 442 379 l 361 379 z "},"h":{"ha":544,"x_min":63,"x_max":739,"o":"m 349 0 l 461 435 l 308 435 l 196 0 l 63 0 l 319 997 l 453 997 l 336 546 l 489 546 l 606 997 l 739 997 l 482 0 l 349 0 z "},"i":{"ha":258,"x_min":63,"x_max":453,"o":"m 63 0 l 319 997 l 453 997 l 196 0 l 63 0 z "},"j":{"ha":371,"x_min":28,"x_max":565,"o":"m 56 111 l 154 111 q 192 124 175 111 q 217 164 210 136 l 432 997 l 565 997 l 351 168 q 154 0 307 0 l 28 0 l 56 111 z "},"k":{"ha":492,"x_min":63,"x_max":718,"o":"m 324 494 l 596 997 l 718 997 l 446 500 l 492 0 l 358 0 l 321 486 l 196 0 l 63 0 l 319 997 l 453 997 l 324 494 z "},"l":{"ha":385,"x_min":63,"x_max":453,"o":"m 357 0 l 63 0 l 319 997 l 453 997 l 224 111 l 385 111 l 357 0 z "},"m":{"ha":660,"x_min":63,"x_max":861,"o":"m 439 411 l 714 997 l 861 997 l 604 0 l 471 0 l 653 653 l 431 181 l 328 181 l 350 653 l 196 0 l 63 0 l 319 997 l 467 997 l 439 411 z "},"n":{"ha":529,"x_min":63,"x_max":729,"o":"m 596 997 l 729 997 l 472 0 l 339 0 l 390 199 l 364 653 l 196 0 l 63 0 l 319 997 l 453 997 l 472 515 l 596 997 z "},"o":{"ha":558,"x_min":61,"x_max":754,"o":"m 336 111 q 378 124 360 111 q 404 163 397 136 l 578 835 q 539 886 592 886 l 476 886 q 411 835 425 886 l 238 163 q 276 111 224 111 l 336 111 m 224 0 q 106 169 61 0 l 275 826 q 479 997 321 997 l 593 997 q 708 826 754 997 l 539 169 q 335 0 494 0 l 224 0 z "},"p":{"ha":517,"x_min":63,"x_max":731,"o":"m 322 490 l 344 490 q 443 514 407 490 q 493 590 479 538 l 558 842 q 524 886 574 886 l 425 886 l 322 490 m 196 0 l 63 0 l 319 997 l 571 997 q 688 826 731 997 l 622 571 q 518 423 594 467 q 315 379 442 379 l 293 379 l 196 0 z "},"q":{"ha":558,"x_min":61,"x_max":754,"o":"m 578 835 q 539 886 592 886 l 476 886 q 411 835 425 886 l 238 163 q 276 111 224 111 l 390 111 l 578 835 m 597 111 l 569 0 l 224 0 q 106 169 61 0 l 275 826 q 479 997 321 997 l 593 997 q 708 826 754 997 l 524 111 l 597 111 z "},"r":{"ha":518,"x_min":49,"x_max":721,"o":"m 315 517 l 403 517 q 481 589 463 517 l 536 804 q 496 876 554 876 l 408 876 l 315 517 m 350 0 l 367 403 l 286 403 l 182 0 l 49 0 l 306 997 l 567 997 q 675 826 721 997 l 613 581 q 490 415 578 450 l 476 0 l 350 0 z "},"s":{"ha":514,"x_min":54,"x_max":711,"o":"m 228 153 q 257 111 217 111 l 314 111 q 364 153 356 111 l 417 356 q 417 392 424 382 q 397 410 410 401 l 271 508 q 230 579 233 539 q 236 661 226 619 l 278 840 q 350 962 301 926 q 479 997 399 997 l 550 997 q 665 826 711 997 l 631 688 l 497 688 l 538 843 q 507 886 550 886 l 468 886 q 413 842 424 886 l 361 640 q 363 603 354 613 q 386 585 371 594 l 511 485 q 549 431 544 461 q 542 349 554 401 l 499 154 q 427 35 476 69 q 297 0 378 0 l 215 0 q 103 183 54 0 l 122 260 l 256 260 l 228 153 z "},"t":{"ha":417,"x_min":142,"x_max":660,"o":"m 504 886 l 275 0 l 142 0 l 371 886 l 243 886 l 271 997 l 660 997 l 632 886 l 504 886 z "},"u":{"ha":544,"x_min":63,"x_max":739,"o":"m 739 997 l 531 189 q 447 47 507 93 q 292 0 386 0 l 251 0 q 111 190 63 0 l 319 997 l 453 997 l 243 186 q 285 121 225 121 l 318 121 q 396 186 378 121 l 606 997 l 739 997 z "},"v":{"ha":519,"x_min":174,"x_max":750,"o":"m 750 997 l 332 0 l 174 0 l 269 997 l 401 997 l 313 236 l 618 997 l 750 997 z "},"w":{"ha":785,"x_min":160,"x_max":1015,"o":"m 304 0 l 160 0 l 269 997 l 401 997 l 303 250 l 590 997 l 694 997 l 596 250 l 883 997 l 1015 997 l 611 0 l 467 0 l 533 578 l 304 0 z "},"x":{"ha":458,"x_min":14,"x_max":688,"o":"m 433 508 l 444 0 l 325 0 l 319 349 l 317 349 l 133 0 l 14 0 l 285 508 l 285 997 l 406 997 l 401 671 l 404 671 l 567 997 l 688 997 l 433 508 z "},"y":{"ha":486,"x_min":178,"x_max":729,"o":"m 396 564 l 597 997 l 729 997 l 397 339 l 311 0 l 178 0 l 272 367 l 271 997 l 403 997 l 392 564 l 396 564 z "},"z":{"ha":421,"x_min":58,"x_max":618,"o":"m 414 111 l 386 0 l 63 0 l 58 96 l 478 885 l 285 885 l 314 997 l 608 997 l 618 903 l 203 111 l 414 111 z "},"à":{"ha":531,"x_min":56,"x_max":733,"o":"m 506 1058 l 460 1236 l 582 1236 l 600 1058 l 506 1058 m 467 486 l 553 818 q 510 876 567 876 l 474 876 q 400 818 414 876 l 314 486 l 467 486 m 189 0 l 56 0 l 268 826 q 472 997 314 997 l 572 997 q 688 826 733 997 l 475 0 l 342 0 l 436 365 l 283 365 l 189 0 z "},"á":{"ha":531,"x_min":56,"x_max":733,"o":"m 589 1058 l 494 1058 l 604 1236 l 726 1236 l 589 1058 m 467 486 l 553 818 q 510 876 567 876 l 474 876 q 400 818 414 876 l 314 486 l 467 486 m 189 0 l 56 0 l 268 826 q 472 997 314 997 l 572 997 q 688 826 733 997 l 475 0 l 342 0 l 436 365 l 283 365 l 189 0 z "},"â":{"ha":531,"x_min":56,"x_max":706,"o":"m 565 1153 l 486 1072 l 383 1072 l 543 1228 l 626 1228 l 706 1072 l 603 1072 l 565 1153 m 467 486 l 553 818 q 555 831 554 825 q 556 842 556 836 q 554 851 556 849 q 553 853 553 853 q 553 856 554 854 q 550 858 553 856 q 546 864 550 861 q 536 872 544 867 q 532 874 533 872 l 529 874 q 524 875 528 875 q 510 876 519 876 l 474 876 q 460 875 464 876 q 454 874 457 875 q 449 874 451 874 q 444 872 447 872 q 433 867 439 871 q 421 858 426 864 q 418 856 421 858 q 404 832 408 843 l 400 818 l 314 486 l 467 486 m 189 0 l 56 0 l 268 826 l 271 835 l 275 851 q 278 858 278 857 q 285 874 282 867 q 290 888 288 881 q 294 895 293 892 q 297 901 296 899 q 322 936 308 921 q 351 963 336 951 q 358 967 353 964 q 399 986 376 981 q 403 988 401 988 q 407 989 404 988 q 442 996 425 994 q 453 997 447 996 q 464 997 458 997 l 472 997 l 572 997 q 599 996 586 997 q 622 992 611 994 q 628 990 625 990 q 635 989 632 990 q 642 985 638 986 q 650 982 647 985 q 656 979 653 979 q 681 954 672 968 q 690 938 686 947 q 696 919 693 929 q 697 900 697 910 q 697 881 697 892 q 688 826 694 853 l 475 0 l 342 0 l 436 365 l 283 365 l 189 0 z "},"ã":{"ha":531,"x_min":56,"x_max":733,"o":"m 722 1190 q 665 1097 706 1128 q 583 1065 625 1067 q 557 1069 568 1065 q 537 1079 546 1074 q 519 1089 528 1085 q 500 1093 510 1093 q 458 1058 472 1093 l 390 1058 q 442 1147 406 1118 q 519 1179 478 1176 q 544 1175 533 1179 q 564 1165 554 1171 q 583 1156 574 1160 q 606 1151 593 1151 q 633 1163 621 1154 q 650 1190 644 1172 l 722 1190 m 467 486 l 553 818 q 510 876 567 876 l 474 876 q 400 818 414 876 l 314 486 l 467 486 m 189 0 l 56 0 l 268 826 q 472 997 314 997 l 572 997 q 688 826 733 997 l 475 0 l 342 0 l 436 365 l 283 365 l 189 0 z "},"ä":{"ha":531,"x_min":56,"x_max":733,"o":"m 533 1197 l 497 1058 l 386 1058 l 422 1197 l 533 1197 m 728 1197 l 692 1058 l 581 1058 l 617 1197 l 728 1197 m 467 486 l 553 818 q 510 876 567 876 l 474 876 q 400 818 414 876 l 314 486 l 467 486 m 189 0 l 56 0 l 268 826 q 472 997 314 997 l 572 997 q 688 826 733 997 l 475 0 l 342 0 l 436 365 l 283 365 l 189 0 z "},"å":{"ha":531,"x_min":56,"x_max":733,"o":"m 608 1129 q 603 1164 614 1150 q 574 1178 593 1178 q 537 1164 554 1178 q 514 1129 519 1150 q 519 1094 508 1108 q 549 1081 529 1081 q 585 1094 568 1081 q 608 1129 603 1108 m 665 1129 q 616 1053 654 1083 q 533 1022 578 1022 q 468 1053 492 1022 q 456 1129 444 1083 q 508 1207 468 1176 q 589 1238 547 1238 q 656 1207 633 1238 q 665 1129 678 1176 m 467 486 l 553 818 q 510 876 567 876 l 474 876 q 400 818 414 876 l 314 486 l 467 486 m 189 0 l 56 0 l 268 826 q 472 997 314 997 l 572 997 q 688 826 733 997 l 475 0 l 342 0 l 436 365 l 283 365 l 189 0 z "},"ç":{"ha":510,"x_min":61,"x_max":726,"o":"m 169 -190 l 233 -190 q 276 -157 268 -190 l 282 -137 q 257 -99 292 -99 l 201 -99 l 228 0 l 222 0 q 106 169 61 0 l 276 828 q 479 997 321 997 l 565 997 q 682 828 726 997 l 646 688 l 513 688 l 549 828 q 504 886 563 886 l 478 886 q 410 828 424 886 l 239 169 q 276 111 224 111 l 310 111 q 378 169 363 111 l 401 261 l 535 261 l 511 169 q 308 0 467 0 l 300 0 l 288 -43 l 300 -43 q 356 -124 378 -43 l 343 -176 q 244 -253 322 -251 l 153 -253 l 169 -190 z "},"è":{"ha":399,"x_min":63,"x_max":614,"o":"m 457 1058 l 411 1236 l 533 1236 l 551 1058 l 457 1058 m 63 0 l 319 997 l 614 997 l 586 886 l 425 886 l 336 546 l 497 546 l 469 435 l 308 435 l 224 111 l 385 111 l 357 0 l 63 0 z "},"é":{"ha":399,"x_min":63,"x_max":654,"o":"m 517 1058 l 422 1058 l 532 1236 l 654 1236 l 517 1058 m 63 0 l 319 997 l 614 997 l 586 886 l 425 886 l 336 546 l 497 546 l 469 435 l 308 435 l 224 111 l 385 111 l 357 0 l 63 0 z "},"ê":{"ha":399,"x_min":63,"x_max":649,"o":"m 508 1139 l 429 1058 l 326 1058 l 486 1214 l 569 1214 l 649 1058 l 546 1058 l 508 1139 m 63 0 l 319 997 l 614 997 l 586 886 l 425 886 l 336 546 l 497 546 l 469 435 l 308 435 l 224 111 l 385 111 l 357 0 l 63 0 z "},"ë":{"ha":399,"x_min":63,"x_max":681,"o":"m 681 1199 l 644 1060 l 533 1060 l 569 1199 l 681 1199 m 486 1199 l 450 1060 l 339 1060 l 375 1199 l 486 1199 m 63 0 l 319 997 l 614 997 l 586 886 l 425 886 l 336 546 l 497 546 l 469 435 l 308 435 l 224 111 l 385 111 l 357 0 l 63 0 z "},"ì":{"ha":258,"x_min":63,"x_max":471,"o":"m 376 1044 l 331 1222 l 453 1222 l 471 1044 l 376 1044 m 63 0 l 319 997 l 453 997 l 196 0 l 63 0 z "},"í":{"ha":258,"x_min":63,"x_max":572,"o":"m 435 1047 l 340 1047 l 450 1225 l 572 1225 l 435 1047 m 63 0 l 319 997 l 453 997 l 196 0 l 63 0 z "},"î":{"ha":258,"x_min":63,"x_max":557,"o":"m 418 1143 l 338 1063 l 235 1063 l 394 1218 l 478 1218 l 557 1063 l 454 1063 l 418 1143 m 63 0 l 319 997 l 453 997 l 196 0 l 63 0 z "},"ï":{"ha":258,"x_min":63,"x_max":588,"o":"m 588 1197 l 551 1058 l 440 1058 l 476 1197 l 588 1197 m 393 1197 l 357 1058 l 246 1058 l 282 1197 l 393 1197 m 63 0 l 319 997 l 453 997 l 196 0 l 63 0 z "},"ñ":{"ha":535,"x_min":63,"x_max":729,"o":"m 725 1190 q 668 1097 708 1128 q 586 1065 628 1067 q 560 1069 571 1065 q 540 1079 549 1074 q 522 1089 531 1085 q 503 1093 513 1093 q 461 1058 475 1093 l 393 1058 q 444 1147 408 1118 q 522 1179 481 1176 q 547 1175 536 1179 q 567 1165 557 1171 q 586 1156 576 1160 q 608 1151 596 1151 q 635 1163 624 1154 q 653 1190 647 1172 l 725 1190 m 596 997 l 729 997 l 472 0 l 339 0 l 390 199 l 364 653 l 196 0 l 63 0 l 319 997 l 453 997 l 472 515 l 596 997 z "},"ò":{"ha":558,"x_min":61,"x_max":754,"o":"m 549 1044 l 503 1222 l 625 1222 l 643 1044 l 549 1044 m 344 111 q 404 163 390 111 l 578 835 q 539 886 592 886 l 476 886 q 411 835 425 886 l 238 163 q 276 111 224 111 l 344 111 m 224 0 q 106 169 61 0 l 275 826 q 479 997 321 997 l 593 997 q 708 826 754 997 l 539 169 q 335 0 494 0 l 224 0 z "},"ó":{"ha":558,"x_min":61,"x_max":754,"o":"m 590 1044 l 496 1044 l 606 1222 l 728 1222 l 590 1044 m 344 111 q 404 163 390 111 l 578 835 q 539 886 592 886 l 476 886 q 411 835 425 886 l 238 163 q 276 111 224 111 l 344 111 m 224 0 q 106 169 61 0 l 275 826 q 479 997 321 997 l 593 997 q 708 826 754 997 l 539 169 q 335 0 494 0 l 224 0 z "},"ô":{"ha":558,"x_min":61,"x_max":754,"o":"m 569 1139 l 490 1058 l 388 1058 l 547 1214 l 631 1214 l 710 1058 l 607 1058 l 569 1139 m 344 111 q 404 163 390 111 l 578 835 q 539 886 592 886 l 476 886 q 411 835 425 886 l 238 163 q 276 111 224 111 l 344 111 m 224 0 q 106 169 61 0 l 275 826 q 479 997 321 997 l 593 997 q 708 826 754 997 l 539 169 q 335 0 494 0 l 224 0 z "},"õ":{"ha":558,"x_min":61,"x_max":754,"o":"m 729 1190 q 672 1097 713 1128 q 590 1065 632 1067 q 564 1069 575 1065 q 544 1079 553 1074 q 526 1089 535 1085 q 507 1093 517 1093 q 465 1058 479 1093 l 397 1058 q 449 1147 413 1118 q 526 1179 485 1176 q 551 1175 540 1179 q 571 1165 561 1171 q 590 1156 581 1160 q 613 1151 600 1151 q 640 1163 628 1154 q 657 1190 651 1172 l 729 1190 m 344 111 q 404 163 390 111 l 578 835 q 539 886 592 886 l 476 886 q 411 835 425 886 l 238 163 q 276 111 224 111 l 344 111 m 224 0 q 106 169 61 0 l 275 826 q 479 997 321 997 l 593 997 q 708 826 754 997 l 539 169 q 335 0 494 0 l 224 0 z "},"ö":{"ha":558,"x_min":61,"x_max":754,"o":"m 546 1197 l 510 1058 l 399 1058 l 435 1197 l 546 1197 m 740 1197 l 704 1058 l 593 1058 l 629 1197 l 740 1197 m 344 111 q 404 163 390 111 l 578 835 q 539 886 592 886 l 476 886 q 411 835 425 886 l 238 163 q 276 111 224 111 l 344 111 m 224 0 q 106 169 61 0 l 275 826 q 479 997 321 997 l 593 997 q 708 826 754 997 l 539 169 q 335 0 494 0 l 224 0 z "},"ø":{"ha":558,"x_min":65,"x_max":751,"o":"m 543 876 l 474 876 q 400 818 414 876 l 238 189 l 543 876 m 268 121 l 347 121 q 415 179 400 121 l 581 821 l 268 121 m 697 1081 l 657 990 q 715 826 751 964 l 546 169 q 342 0 501 0 l 215 0 l 178 -83 l 115 -83 l 156 7 q 99 169 65 36 l 268 826 q 472 997 314 997 l 597 997 l 635 1081 l 697 1081 z "},"ù":{"ha":544,"x_min":63,"x_max":739,"o":"m 504 1044 l 458 1222 l 581 1222 l 599 1044 l 504 1044 m 739 997 l 531 189 q 292 0 481 0 l 251 0 q 111 190 63 0 l 319 997 l 453 997 l 243 186 q 285 121 225 121 l 318 121 q 396 186 378 121 l 606 997 l 739 997 z "},"û":{"ha":544,"x_min":63,"x_max":739,"o":"m 565 1139 l 486 1058 l 383 1058 l 543 1214 l 626 1214 l 706 1058 l 603 1058 l 565 1139 m 739 997 l 531 189 q 292 0 481 0 l 251 0 q 111 190 63 0 l 319 997 l 453 997 l 243 186 q 285 121 225 121 l 318 121 q 396 186 378 121 l 606 997 l 739 997 z "},"ú":{"ha":544,"x_min":63,"x_max":739,"o":"m 581 1031 l 486 1031 l 596 1208 l 718 1208 l 581 1031 m 739 997 l 531 189 q 292 0 481 0 l 251 0 q 111 190 63 0 l 319 997 l 453 997 l 243 186 q 285 121 225 121 l 318 121 q 396 186 378 121 l 606 997 l 739 997 z "},"ü":{"ha":544,"x_min":63,"x_max":740,"o":"m 740 1197 l 704 1058 l 593 1058 l 629 1197 l 740 1197 m 546 1197 l 510 1058 l 399 1058 l 435 1197 l 546 1197 m 739 997 l 531 189 q 292 0 481 0 l 251 0 q 111 190 63 0 l 319 997 l 453 997 l 243 186 q 285 121 225 121 l 318 121 q 396 186 378 121 l 606 997 l 739 997 z "},"ÿ":{"ha":486,"x_min":178,"x_max":729,"o":"m 706 1197 l 669 1058 l 558 1058 l 594 1197 l 706 1197 m 511 1197 l 475 1058 l 364 1058 l 400 1197 l 511 1197 m 396 564 l 597 997 l 729 997 l 406 367 l 311 0 l 178 0 l 272 367 l 271 997 l 403 997 l 392 564 l 396 564 z "},"~":{"ha":610,"x_min":271,"x_max":811,"o":"m 811 997 q 773 913 797 944 q 719 862 749 881 q 659 837 690 843 q 603 831 628 831 q 555 841 576 831 q 514 864 533 851 q 477 887 494 876 q 443 897 460 897 q 400 883 419 897 q 371 832 381 868 l 271 832 q 308 917 283 883 q 360 968 332 950 q 417 993 389 986 q 465 1000 444 1000 q 510 990 492 1000 q 546 966 529 979 q 578 942 563 953 q 615 932 594 932 q 667 947 640 932 q 704 997 694 961 l 811 997 z "},"^":{"ha":572,"x_min":251,"x_max":740,"o":"m 382 814 l 251 814 l 501 997 l 585 997 l 740 814 l 610 814 l 522 917 l 382 814 z "},"€":{"ha":510,"x_min":61,"x_max":726,"o":"m 390 414 l 303 414 l 239 169 q 276 111 224 111 l 310 111 q 378 169 363 111 l 401 261 l 535 261 l 511 169 q 308 0 467 0 l 222 0 q 106 169 61 0 l 169 414 l 121 414 l 139 483 l 188 483 l 201 539 l 153 539 l 171 608 l 219 608 l 276 828 q 479 997 321 997 l 565 997 q 682 828 726 997 l 646 688 l 513 688 l 549 828 q 504 886 563 886 l 478 886 q 410 828 424 886 l 353 608 l 510 608 l 467 539 l 335 539 l 321 483 l 433 483 l 390 414 z "},"¦":{"ha":292,"x_min":47,"x_max":501,"o":"m 47 -139 l 179 372 l 304 372 l 172 -139 l 47 -139 m 243 618 l 376 1136 l 501 1136 l 368 618 l 243 618 z "},"²":{"ha":390,"x_min":190,"x_max":592,"o":"m 476 550 l 454 464 l 190 464 l 226 604 q 240 636 232 624 q 275 671 247 649 l 403 758 q 428 781 422 772 q 434 796 431 785 q 442 826 438 807 l 457 885 q 439 911 465 911 l 415 911 q 382 885 390 911 l 367 825 l 268 825 l 285 886 q 413 997 313 997 l 493 997 q 564 886 592 997 l 536 779 q 524 749 531 760 q 494 721 517 738 l 372 635 q 349 617 357 624 q 336 606 340 611 q 330 595 332 600 q 326 582 328 590 l 318 550 l 476 550 z "},"³":{"ha":400,"x_min":175,"x_max":593,"o":"m 471 736 q 519 676 531 722 l 489 558 q 368 464 464 464 l 271 464 q 200 558 175 464 l 213 608 l 318 608 l 310 576 q 333 550 304 550 l 351 550 q 388 579 381 550 l 407 654 q 389 692 417 692 l 356 693 l 376 775 l 400 776 q 439 808 431 776 l 460 886 q 436 911 465 911 l 425 911 q 390 886 396 911 l 379 847 l 274 847 l 288 899 q 408 997 313 997 l 497 997 q 568 899 593 997 l 540 792 q 471 736 528 746 z "},"¹":{"ha":292,"x_min":250,"x_max":483,"o":"m 349 847 l 279 824 l 274 897 q 408 1001 361 936 l 415 1001 l 483 960 l 356 464 l 250 464 l 349 847 z "},"¼":{"ha":881,"x_min":185,"x_max":918,"o":"m 804 447 l 797 447 l 656 193 l 724 193 l 804 447 m 349 847 l 279 824 l 274 897 q 408 1001 361 936 l 415 1001 l 483 960 l 356 464 l 250 464 l 349 847 m 914 997 l 275 0 l 185 0 l 821 997 l 914 997 m 807 107 l 781 0 l 675 0 l 701 107 l 543 107 l 551 192 l 763 533 l 918 533 l 829 193 l 888 193 l 865 107 l 807 107 z "},"½":{"ha":881,"x_min":185,"x_max":976,"o":"m 349 847 l 279 824 l 274 897 q 408 1001 361 936 l 415 1001 l 483 960 l 356 464 l 250 464 l 349 847 m 914 997 l 275 0 l 185 0 l 821 997 l 914 997 m 861 86 l 839 0 l 575 0 l 611 140 q 617 158 614 150 q 624 172 619 165 q 637 188 629 179 q 658 207 644 196 l 786 294 q 813 317 808 310 q 826 363 815 322 l 842 421 q 824 447 847 447 l 800 447 q 767 421 772 447 l 751 361 l 653 361 l 668 422 q 797 533 697 533 l 878 533 q 947 422 976 533 l 919 315 q 908 285 914 296 q 878 257 901 274 l 756 171 q 732 153 740 160 q 719 142 724 147 q 714 131 715 136 q 710 118 713 126 l 703 86 l 861 86 z "},"¾":{"ha":881,"x_min":161,"x_max":956,"o":"m 804 447 l 797 447 l 656 193 l 724 193 l 804 447 m 956 997 l 317 0 l 226 0 l 863 997 l 956 997 m 457 736 q 506 676 517 722 l 475 558 q 354 464 450 464 l 257 464 q 186 558 161 464 l 199 608 l 304 608 l 296 576 q 319 550 290 550 l 338 550 q 374 579 367 550 l 393 654 q 375 692 403 692 l 342 693 l 363 775 l 386 776 q 425 808 417 776 l 446 886 q 422 911 451 911 l 411 911 q 376 886 382 911 l 365 847 l 260 847 l 274 899 q 394 997 299 997 l 483 997 q 554 899 579 997 l 526 792 q 457 736 514 746 m 807 107 l 781 0 l 675 0 l 701 107 l 543 107 l 551 192 l 763 533 l 918 533 l 829 193 l 888 193 l 865 107 l 807 107 z "},"×":{"ha":525,"x_min":149,"x_max":624,"o":"m 463 485 l 568 354 l 460 268 l 367 408 l 215 279 l 149 368 l 310 485 l 204 617 l 315 703 l 407 561 l 558 692 l 624 603 l 463 485 z "},"Þ":{"ha":524,"x_min":63,"x_max":697,"o":"m 307 433 l 407 433 q 475 492 460 433 l 517 651 q 472 710 531 710 l 379 710 l 307 433 m 408 831 l 538 831 q 651 660 697 831 l 606 481 q 401 313 563 313 l 276 313 l 196 0 l 63 0 l 319 997 l 451 997 l 408 831 z "},"Ł":{"ha":385,"x_min":63,"x_max":453,"o":"m 453 625 l 428 531 l 317 469 l 224 113 l 385 113 l 357 0 l 63 0 l 161 385 l 101 353 l 126 447 l 186 479 l 319 997 l 453 997 l 342 564 l 453 625 z "},"−":{"ha":556,"x_min":183,"x_max":631,"o":"m 183 444 l 214 563 l 631 563 l 600 444 l 183 444 z "},"Ý":{"ha":486,"x_min":178,"x_max":729,"o":"m 554 1049 l 460 1049 l 569 1226 l 692 1226 l 554 1049 m 396 564 l 597 997 l 729 997 l 406 367 l 311 0 l 178 0 l 272 367 l 271 997 l 403 997 l 392 564 l 396 564 z "},"Š":{"ha":514,"x_min":54,"x_max":718,"o":"m 615 1218 l 718 1218 l 558 1063 l 475 1063 l 396 1218 l 499 1218 l 536 1138 l 615 1218 m 497 688 l 538 843 q 507 886 550 886 l 468 886 q 413 842 424 886 l 361 640 q 363 603 354 613 q 386 585 371 594 l 528 485 q 563 441 558 463 q 554 372 567 419 l 501 168 q 297 0 458 0 l 215 0 q 103 183 54 0 l 122 260 l 256 260 l 228 153 q 257 111 217 111 l 314 111 q 364 153 356 111 l 417 356 q 417 392 424 383 q 397 410 411 401 l 257 515 q 228 544 238 531 q 217 570 219 557 q 218 599 215 583 q 226 633 221 614 l 275 826 q 479 997 321 997 l 550 997 q 665 826 711 997 l 631 688 l 497 688 z "},"Ð":{"ha":538,"x_min":63,"x_max":738,"o":"m 308 435 l 226 121 l 326 121 q 390 165 379 121 l 556 804 q 515 876 574 876 l 422 876 l 336 546 l 424 546 l 396 435 l 308 435 m 175 435 l 126 435 l 154 546 l 203 546 l 319 997 l 551 997 q 690 806 738 997 l 518 144 q 322 0 482 0 l 63 0 l 175 435 z "},"ł":{"ha":385,"x_min":63,"x_max":453,"o":"m 453 625 l 428 531 l 317 469 l 224 111 l 385 111 l 357 0 l 63 0 l 161 385 l 101 353 l 126 447 l 186 479 l 319 997 l 453 997 l 342 564 l 453 625 z "},"Ž":{"ha":407,"x_min":43,"x_max":697,"o":"m 594 1214 l 697 1214 l 538 1058 l 454 1058 l 375 1214 l 478 1214 l 515 1133 l 594 1214 m 414 111 l 386 0 l 43 0 l 58 96 l 478 885 l 285 885 l 314 997 l 635 997 l 618 903 l 203 111 l 414 111 z "},"ž":{"ha":407,"x_min":43,"x_max":700,"o":"m 597 1228 l 700 1228 l 540 1072 l 457 1072 l 378 1228 l 481 1228 l 518 1147 l 597 1228 m 414 111 l 386 0 l 43 0 l 58 96 l 478 885 l 285 885 l 314 997 l 635 997 l 618 903 l 203 111 l 414 111 z "},"š":{"ha":514,"x_min":54,"x_max":711,"o":"m 228 153 q 257 111 217 111 l 314 111 q 364 153 356 111 l 417 356 q 417 392 424 382 q 397 410 410 401 l 271 508 q 230 579 233 539 q 236 661 226 619 l 278 840 q 350 962 301 926 q 479 997 399 997 l 550 997 q 665 826 711 997 l 631 688 l 497 688 l 538 843 q 507 886 550 886 l 468 886 q 413 842 424 886 l 361 640 q 363 603 354 613 q 386 585 371 594 l 511 485 q 549 431 544 461 q 542 349 554 401 l 499 154 q 427 35 476 69 q 297 0 378 0 l 215 0 q 103 183 54 0 l 122 260 l 256 260 l 228 153 m 601 1214 l 704 1214 l 544 1058 l 461 1058 l 382 1214 l 485 1214 l 522 1133 l 601 1214 z "},"ð":{"ha":538,"x_min":63,"x_max":738,"o":"m 226 121 l 326 121 q 390 165 379 121 l 556 804 q 515 876 574 876 l 422 876 l 333 535 l 429 535 l 400 424 l 304 424 l 226 121 m 63 0 l 171 424 l 125 424 l 154 535 l 200 535 l 319 997 l 551 997 q 690 806 738 997 l 518 144 q 322 0 482 0 l 63 0 z "},"ý":{"ha":486,"x_min":178,"x_max":729,"o":"m 547 1044 l 453 1044 l 563 1222 l 685 1222 l 547 1044 m 396 564 l 597 997 l 729 997 l 406 367 l 311 0 l 178 0 l 272 367 l 271 997 l 403 997 l 392 564 l 396 564 z "},"þ":{"ha":524,"x_min":63,"x_max":697,"o":"m 307 433 l 407 433 q 475 492 460 433 l 517 651 q 472 710 531 710 l 379 710 l 307 433 m 408 831 l 538 831 q 651 660 697 831 l 606 481 q 401 313 563 313 l 276 313 l 196 0 l 63 0 l 319 997 l 451 997 l 408 831 z "},"Ѐ":{"ha":399,"x_min":63,"x_max":614,"o":"m 451 1044 l 406 1222 l 528 1222 l 546 1044 l 451 1044 m 63 0 l 319 997 l 614 997 l 586 886 l 425 886 l 336 546 l 497 546 l 469 435 l 308 435 l 224 111 l 385 111 l 357 0 l 63 0 z "},"ś":{"ha":514,"x_min":54,"x_max":724,"o":"m 228 153 q 257 111 217 111 l 314 111 q 364 153 356 111 l 417 356 q 417 392 424 382 q 397 410 410 401 l 271 508 q 230 579 233 539 q 236 661 226 619 l 278 840 q 350 962 301 926 q 479 997 399 997 l 550 997 q 665 826 711 997 l 631 688 l 497 688 l 538 843 q 507 886 550 886 l 468 886 q 413 842 424 886 l 361 640 q 363 603 354 613 q 386 585 371 594 l 511 485 q 549 431 544 461 q 542 349 554 401 l 499 154 q 427 35 476 69 q 297 0 378 0 l 215 0 q 103 183 54 0 l 122 260 l 256 260 l 228 153 m 586 1044 l 492 1044 l 601 1222 l 724 1222 l 586 1044 z "},"ť":{"ha":417,"x_min":142,"x_max":679,"o":"m 497 1119 l 576 1200 l 679 1200 l 519 1044 l 436 1044 l 357 1200 l 460 1200 l 497 1119 m 504 886 l 275 0 l 142 0 l 371 886 l 243 886 l 271 997 l 660 997 l 632 886 l 504 886 z "},"ź":{"ha":421,"x_min":43,"x_max":668,"o":"m 531 1044 l 436 1044 l 546 1222 l 668 1222 l 531 1044 m 414 111 l 386 0 l 43 0 l 58 96 l 478 885 l 285 885 l 314 997 l 635 997 l 618 903 l 203 111 l 414 111 z "},"Ś":{"ha":514,"x_min":54,"x_max":711,"o":"m 228 153 q 257 111 217 111 l 314 111 q 364 153 356 111 l 417 356 q 417 392 424 382 q 397 410 410 401 l 271 508 q 230 579 233 539 q 236 661 226 619 l 278 840 q 350 962 301 926 q 479 997 399 997 l 550 997 q 665 826 711 997 l 631 688 l 497 688 l 538 843 q 507 886 550 886 l 468 886 q 413 842 424 886 l 361 640 q 363 603 354 613 q 386 585 371 594 l 511 485 q 549 431 544 461 q 542 349 554 401 l 499 154 q 427 35 476 69 q 297 0 378 0 l 215 0 q 103 183 54 0 l 122 260 l 256 260 l 228 153 m 569 1031 l 475 1031 l 585 1208 l 707 1208 l 569 1031 z "},"Ť":{"ha":417,"x_min":142,"x_max":679,"o":"m 497 1119 l 576 1200 l 679 1200 l 519 1044 l 436 1044 l 357 1200 l 460 1200 l 497 1119 m 504 886 l 275 0 l 142 0 l 371 886 l 243 886 l 271 997 l 660 997 l 632 886 l 504 886 z "},"Ź":{"ha":421,"x_min":43,"x_max":668,"o":"m 531 1044 l 436 1044 l 546 1222 l 668 1222 l 531 1044 m 414 111 l 386 0 l 43 0 l 58 96 l 478 885 l 285 885 l 314 997 l 635 997 l 618 903 l 203 111 l 414 111 z "},"Ą":{"ha":531,"x_min":56,"x_max":733,"o":"m 467 486 l 553 818 q 510 876 567 876 l 474 876 q 400 818 414 876 l 314 486 l 467 486 m 342 0 l 436 365 l 283 365 l 189 0 l 56 0 l 268 826 q 472 997 314 997 l 572 997 q 688 826 733 997 l 475 0 q 374 -77 404 -46 q 336 -142 344 -108 q 372 -187 324 -187 q 439 -167 399 -187 l 415 -262 q 328 -281 374 -281 q 251 -249 278 -281 q 236 -167 224 -218 q 250 -129 242 -149 q 276 -90 258 -110 q 321 -47 293 -69 q 392 0 349 -25 l 342 0 z "},"Ş":{"ha":514,"x_min":54,"x_max":711,"o":"m 154 -226 l 218 -226 q 263 -193 251 -226 l 267 -174 q 242 -135 276 -135 l 186 -135 l 222 0 l 215 0 q 103 183 54 0 l 122 260 l 256 260 l 228 153 q 257 111 217 111 l 314 111 q 364 153 356 111 l 417 356 q 417 392 424 382 q 397 410 410 401 l 271 508 q 230 579 233 539 q 236 661 226 619 l 278 840 q 350 962 301 926 q 479 997 399 997 l 550 997 q 665 826 711 997 l 631 688 l 497 688 l 538 843 q 507 886 550 886 l 468 886 q 413 842 424 886 l 361 640 q 363 603 354 613 q 386 585 371 594 l 511 485 q 549 431 544 461 q 542 349 554 401 l 499 154 q 427 35 476 69 q 297 0 378 0 l 294 0 l 274 -79 l 286 -79 q 342 -160 363 -79 l 328 -212 q 231 -289 310 -286 l 139 -289 l 154 -226 z "},"Ż":{"ha":421,"x_min":43,"x_max":635,"o":"m 601 1183 l 565 1042 l 438 1042 l 474 1183 l 601 1183 m 414 111 l 386 0 l 43 0 l 58 96 l 478 885 l 285 885 l 314 997 l 635 997 l 618 903 l 203 111 l 414 111 z "},"ą":{"ha":531,"x_min":56,"x_max":733,"o":"m 467 486 l 553 818 q 510 876 567 876 l 474 876 q 400 818 414 876 l 314 486 l 467 486 m 342 0 l 436 365 l 283 365 l 189 0 l 56 0 l 268 826 q 472 997 314 997 l 572 997 q 688 826 733 997 l 475 0 q 374 -77 404 -46 q 336 -142 344 -108 q 372 -187 324 -187 q 439 -167 399 -187 l 415 -262 q 328 -281 374 -281 q 251 -249 278 -281 q 236 -167 224 -218 q 250 -129 242 -149 q 276 -90 258 -110 q 321 -47 293 -69 q 392 0 349 -25 l 342 0 z "},"ş":{"ha":514,"x_min":54,"x_max":711,"o":"m 154 -226 l 218 -226 q 263 -193 251 -226 l 267 -174 q 242 -135 276 -135 l 186 -135 l 222 0 l 215 0 q 103 183 54 0 l 122 260 l 256 260 l 228 153 q 257 111 217 111 l 314 111 q 364 153 356 111 l 417 356 q 417 392 424 382 q 397 410 410 401 l 271 508 q 230 579 233 539 q 236 661 226 619 l 278 840 q 350 962 301 926 q 479 997 399 997 l 550 997 q 665 826 711 997 l 631 688 l 497 688 l 538 843 q 507 886 550 886 l 468 886 q 413 842 424 886 l 361 640 q 363 603 354 613 q 386 585 371 594 l 511 485 q 549 431 544 461 q 542 349 554 401 l 499 154 q 427 35 476 69 q 297 0 378 0 l 294 0 l 274 -79 l 286 -79 q 342 -160 363 -79 l 328 -212 q 231 -289 310 -286 l 139 -289 l 154 -226 z "},"Ľ":{"ha":385,"x_min":63,"x_max":606,"o":"m 424 1122 l 503 1203 l 606 1203 l 446 1047 l 363 1047 l 283 1203 l 386 1203 l 424 1122 m 357 0 l 63 0 l 319 997 l 453 997 l 224 111 l 385 111 l 357 0 z "},"ľ":{"ha":385,"x_min":63,"x_max":606,"o":"m 424 1122 l 503 1203 l 606 1203 l 446 1047 l 363 1047 l 283 1203 l 386 1203 l 424 1122 m 357 0 l 63 0 l 319 997 l 453 997 l 224 111 l 385 111 l 357 0 z "},"ż":{"ha":421,"x_min":43,"x_max":635,"o":"m 601 1183 l 565 1042 l 438 1042 l 474 1183 l 601 1183 m 414 111 l 386 0 l 43 0 l 58 96 l 478 885 l 285 885 l 314 997 l 635 997 l 618 903 l 203 111 l 414 111 z "},"Ŕ":{"ha":518,"x_min":49,"x_max":721,"o":"m 528 1031 l 433 1031 l 543 1208 l 665 1208 l 528 1031 m 315 517 l 403 517 q 481 589 463 517 l 536 804 q 496 876 554 876 l 408 876 l 315 517 m 350 0 l 367 403 l 286 403 l 182 0 l 49 0 l 306 997 l 567 997 q 675 826 721 997 l 613 581 q 490 415 578 450 l 476 0 l 350 0 z "},"Ă":{"ha":531,"x_min":56,"x_max":733,"o":"m 511 1185 q 517 1131 508 1149 q 551 1113 525 1113 q 593 1131 574 1113 q 626 1185 613 1149 l 708 1185 q 670 1115 692 1144 q 624 1067 649 1086 q 576 1040 600 1049 q 531 1031 551 1031 q 485 1040 506 1031 q 449 1067 464 1049 q 429 1115 435 1086 q 431 1185 424 1144 l 511 1185 m 467 486 l 553 818 q 510 876 567 876 l 474 876 q 400 818 414 876 l 314 486 l 467 486 m 189 0 l 56 0 l 268 826 q 472 997 314 997 l 572 997 q 688 826 733 997 l 475 0 l 342 0 l 436 365 l 283 365 l 189 0 z "},"Ĺ":{"ha":385,"x_min":63,"x_max":583,"o":"m 446 1044 l 351 1044 l 461 1222 l 583 1222 l 446 1044 m 357 0 l 63 0 l 319 997 l 453 997 l 224 111 l 385 111 l 357 0 z "},"Ć":{"ha":510,"x_min":61,"x_max":726,"o":"m 582 1031 l 488 1031 l 597 1208 l 719 1208 l 582 1031 m 535 261 l 511 169 q 308 0 467 0 l 222 0 q 106 169 61 0 l 276 828 q 479 997 321 997 l 565 997 q 682 828 726 997 l 646 688 l 513 688 l 549 828 q 504 886 563 886 l 478 886 q 410 828 424 886 l 239 169 q 276 111 224 111 l 310 111 q 378 169 363 111 l 401 261 l 535 261 z "},"Č":{"ha":510,"x_min":61,"x_max":735,"o":"m 553 1106 l 632 1186 l 735 1186 l 575 1031 l 492 1031 l 413 1186 l 515 1186 l 553 1106 m 535 261 l 511 169 q 308 0 467 0 l 222 0 q 106 169 61 0 l 276 828 q 479 997 321 997 l 565 997 q 682 828 726 997 l 646 688 l 513 688 l 549 828 q 504 886 563 886 l 478 886 q 410 828 424 886 l 239 169 q 276 111 224 111 l 310 111 q 378 169 363 111 l 401 261 l 535 261 z "},"Ę":{"ha":399,"x_min":29,"x_max":614,"o":"m 63 0 l 319 997 l 614 997 l 586 886 l 425 886 l 336 546 l 497 546 l 469 435 l 308 435 l 224 111 l 385 111 l 357 0 l 281 0 q 180 -77 210 -46 q 142 -142 150 -108 q 178 -187 129 -187 q 244 -167 204 -187 l 221 -262 q 133 -281 179 -281 q 56 -249 83 -281 q 42 -167 29 -218 q 56 -129 47 -149 q 81 -90 64 -110 q 126 -47 99 -69 q 197 0 154 -25 l 63 0 z "},"Ě":{"ha":399,"x_min":63,"x_max":690,"o":"m 508 1106 l 588 1186 l 690 1186 l 531 1031 l 447 1031 l 368 1186 l 471 1186 l 508 1106 m 63 0 l 319 997 l 614 997 l 586 886 l 425 886 l 336 546 l 497 546 l 469 435 l 308 435 l 224 111 l 385 111 l 357 0 l 63 0 z "},"Ď":{"ha":538,"x_min":63,"x_max":738,"o":"m 538 1106 l 617 1186 l 719 1186 l 560 1031 l 476 1031 l 397 1186 l 500 1186 l 538 1106 m 226 121 l 326 121 q 390 165 379 121 l 556 804 q 515 876 574 876 l 422 876 l 226 121 m 319 997 l 551 997 q 690 806 738 997 l 518 144 q 322 0 482 0 l 63 0 l 319 997 z "},"Đ":{"ha":538,"x_min":63,"x_max":738,"o":"m 308 435 l 226 121 l 326 121 q 390 165 379 121 l 556 804 q 515 876 574 876 l 422 876 l 336 546 l 446 546 l 418 435 l 308 435 m 175 435 l 126 435 l 154 546 l 203 546 l 319 997 l 551 997 q 690 806 738 997 l 518 144 q 322 0 482 0 l 63 0 l 175 435 z "},"Ń":{"ha":535,"x_min":63,"x_max":729,"o":"m 568 1031 l 474 1031 l 583 1208 l 706 1208 l 568 1031 m 596 997 l 729 997 l 472 0 l 339 0 l 390 199 l 364 653 l 196 0 l 63 0 l 319 997 l 453 997 l 472 515 l 596 997 z "},"Ň":{"ha":535,"x_min":63,"x_max":733,"o":"m 551 1106 l 631 1186 l 733 1186 l 574 1031 l 490 1031 l 411 1186 l 514 1186 l 551 1106 m 596 997 l 729 997 l 472 0 l 339 0 l 390 199 l 364 653 l 196 0 l 63 0 l 319 997 l 453 997 l 472 515 l 596 997 z "},"Ő":{"ha":558,"x_min":61,"x_max":815,"o":"m 483 1017 l 396 1017 l 519 1200 l 639 1200 l 483 1017 m 658 1017 l 571 1017 l 696 1200 l 815 1200 l 658 1017 m 344 111 q 404 163 390 111 l 578 835 q 539 886 592 886 l 476 886 q 411 835 425 886 l 238 163 q 276 111 224 111 l 344 111 m 224 0 q 106 169 61 0 l 275 826 q 479 997 321 997 l 593 997 q 708 826 754 997 l 539 169 q 335 0 494 0 l 224 0 z "},"Ř":{"ha":518,"x_min":49,"x_max":721,"o":"m 531 1106 l 610 1186 l 713 1186 l 553 1031 l 469 1031 l 390 1186 l 493 1186 l 531 1106 m 315 517 l 403 517 q 481 589 463 517 l 536 804 q 496 876 554 876 l 408 876 l 315 517 m 350 0 l 367 403 l 286 403 l 182 0 l 49 0 l 306 997 l 567 997 q 675 826 721 997 l 613 581 q 490 415 578 450 l 476 0 l 350 0 z "},"Ů":{"ha":544,"x_min":63,"x_max":739,"o":"m 604 1100 q 601 1135 611 1121 q 571 1149 590 1149 q 534 1135 551 1149 q 510 1100 517 1121 q 515 1065 504 1079 q 544 1051 525 1051 q 581 1065 564 1051 q 604 1100 599 1079 m 661 1100 q 613 1024 650 1054 q 531 993 575 993 q 465 1024 489 993 q 451 1100 440 1054 q 504 1178 464 1147 q 586 1208 544 1208 q 652 1178 631 1208 q 661 1100 674 1147 m 739 997 l 531 189 q 292 0 481 0 l 251 0 q 111 190 63 0 l 319 997 l 453 997 l 243 186 q 285 121 225 121 l 318 121 q 396 186 378 121 l 606 997 l 739 997 z "},"Ű":{"ha":544,"x_min":63,"x_max":811,"o":"m 479 1031 l 392 1031 l 515 1214 l 635 1214 l 479 1031 m 654 1031 l 567 1031 l 692 1214 l 811 1214 l 654 1031 m 739 997 l 531 189 q 292 0 481 0 l 251 0 q 111 190 63 0 l 319 997 l 453 997 l 243 186 q 285 121 225 121 l 318 121 q 396 186 378 121 l 606 997 l 739 997 z "},"Ţ":{"ha":417,"x_min":67,"x_max":660,"o":"m 83 -190 l 147 -190 q 190 -157 182 -190 l 196 -137 q 171 -99 206 -99 l 115 -99 l 371 886 l 243 886 l 271 997 l 660 997 l 632 886 l 504 886 l 275 0 l 214 0 l 201 -43 l 214 -43 q 269 -124 292 -43 l 257 -176 q 158 -253 236 -251 l 67 -253 l 83 -190 z "},"ŕ":{"ha":518,"x_min":49,"x_max":721,"o":"m 524 1031 l 429 1031 l 539 1208 l 661 1208 l 524 1031 m 315 517 l 403 517 q 481 589 463 517 l 536 804 q 496 876 554 876 l 408 876 l 315 517 m 350 0 l 367 403 l 286 403 l 182 0 l 49 0 l 306 997 l 567 997 q 675 826 721 997 l 613 581 q 490 415 578 450 l 476 0 l 350 0 z "},"ă":{"ha":531,"x_min":56,"x_max":733,"o":"m 511 1185 q 517 1131 508 1149 q 551 1113 525 1113 q 593 1131 574 1113 q 626 1185 613 1149 l 708 1185 q 670 1115 692 1144 q 624 1067 649 1086 q 576 1040 600 1049 q 531 1031 551 1031 q 485 1040 506 1031 q 449 1067 464 1049 q 429 1115 435 1086 q 431 1185 424 1144 l 511 1185 m 467 486 l 553 818 q 510 876 567 876 l 474 876 q 400 818 414 876 l 314 486 l 467 486 m 189 0 l 56 0 l 268 826 q 472 997 314 997 l 572 997 q 688 826 733 997 l 475 0 l 342 0 l 436 365 l 283 365 l 189 0 z "},"ĺ":{"ha":258,"x_min":63,"x_max":572,"o":"m 435 1047 l 340 1047 l 450 1225 l 572 1225 l 435 1047 m 63 0 l 319 997 l 453 997 l 196 0 l 63 0 z "},"ć":{"ha":510,"x_min":61,"x_max":726,"o":"m 582 1031 l 488 1031 l 597 1208 l 719 1208 l 582 1031 m 535 261 l 511 169 q 308 0 467 0 l 222 0 q 106 169 61 0 l 276 828 q 479 997 321 997 l 565 997 q 682 828 726 997 l 646 688 l 513 688 l 549 828 q 504 886 563 886 l 478 886 q 410 828 424 886 l 239 169 q 276 111 224 111 l 310 111 q 378 169 363 111 l 401 261 l 535 261 z "},"č":{"ha":510,"x_min":61,"x_max":735,"o":"m 553 1106 l 632 1186 l 735 1186 l 575 1031 l 492 1031 l 413 1186 l 515 1186 l 553 1106 m 535 261 l 511 169 q 308 0 467 0 l 222 0 q 106 169 61 0 l 276 828 q 479 997 321 997 l 565 997 q 682 828 726 997 l 646 688 l 513 688 l 549 828 q 504 886 563 886 l 478 886 q 410 828 424 886 l 239 169 q 276 111 224 111 l 310 111 q 378 169 363 111 l 401 261 l 535 261 z "},"ę":{"ha":399,"x_min":29,"x_max":614,"o":"m 63 0 l 319 997 l 614 997 l 586 886 l 425 886 l 336 546 l 497 546 l 469 435 l 308 435 l 224 111 l 385 111 l 357 0 l 281 0 q 180 -77 210 -46 q 142 -142 150 -108 q 178 -187 129 -187 q 244 -167 204 -187 l 221 -262 q 133 -281 179 -281 q 56 -249 83 -281 q 42 -167 29 -218 q 56 -129 47 -149 q 81 -90 64 -110 q 126 -47 99 -69 q 197 0 154 -25 l 63 0 z "},"ě":{"ha":399,"x_min":63,"x_max":690,"o":"m 508 1106 l 588 1186 l 690 1186 l 531 1031 l 447 1031 l 368 1186 l 471 1186 l 508 1106 m 63 0 l 319 997 l 614 997 l 586 886 l 425 886 l 336 546 l 497 546 l 469 435 l 308 435 l 224 111 l 385 111 l 357 0 l 63 0 z "},"ď":{"ha":538,"x_min":63,"x_max":738,"o":"m 549 1106 l 628 1186 l 731 1186 l 571 1031 l 488 1031 l 408 1186 l 511 1186 l 549 1106 m 226 121 l 326 121 q 390 165 379 121 l 556 804 q 515 876 574 876 l 422 876 l 226 121 m 319 997 l 551 997 q 690 806 738 997 l 518 144 q 322 0 482 0 l 63 0 l 319 997 z "},"đ":{"ha":538,"x_min":63,"x_max":738,"o":"m 308 435 l 226 121 l 326 121 q 390 165 379 121 l 556 804 q 515 876 574 876 l 422 876 l 336 546 l 444 546 l 417 435 l 308 435 m 175 435 l 126 435 l 154 546 l 203 546 l 319 997 l 551 997 q 690 806 738 997 l 518 144 q 322 0 482 0 l 63 0 l 175 435 z "},"ń":{"ha":535,"x_min":63,"x_max":729,"o":"m 568 1031 l 474 1031 l 583 1208 l 706 1208 l 568 1031 m 596 997 l 729 997 l 472 0 l 339 0 l 390 199 l 364 653 l 196 0 l 63 0 l 319 997 l 453 997 l 472 515 l 596 997 z "},"ň":{"ha":535,"x_min":63,"x_max":733,"o":"m 551 1106 l 631 1186 l 733 1186 l 574 1031 l 490 1031 l 411 1186 l 514 1186 l 551 1106 m 596 997 l 729 997 l 472 0 l 339 0 l 390 199 l 364 653 l 196 0 l 63 0 l 319 997 l 453 997 l 472 515 l 596 997 z "},"ő":{"ha":558,"x_min":61,"x_max":815,"o":"m 483 1017 l 396 1017 l 519 1200 l 639 1200 l 483 1017 m 658 1017 l 571 1017 l 696 1200 l 815 1200 l 658 1017 m 344 111 q 404 163 390 111 l 578 835 q 539 886 592 886 l 476 886 q 411 835 425 886 l 238 163 q 276 111 224 111 l 344 111 m 224 0 q 106 169 61 0 l 275 826 q 479 997 321 997 l 593 997 q 708 826 754 997 l 539 169 q 335 0 494 0 l 224 0 z "},"ř":{"ha":518,"x_min":49,"x_max":721,"o":"m 531 1106 l 610 1186 l 713 1186 l 553 1031 l 469 1031 l 390 1186 l 493 1186 l 531 1106 m 315 517 l 403 517 q 481 589 463 517 l 536 804 q 496 876 554 876 l 408 876 l 315 517 m 350 0 l 367 403 l 286 403 l 182 0 l 49 0 l 306 997 l 567 997 q 675 826 721 997 l 613 581 q 490 415 578 450 l 476 0 l 350 0 z "},"ů":{"ha":544,"x_min":63,"x_max":739,"o":"m 604 1100 q 601 1135 611 1121 q 571 1149 590 1149 q 534 1135 551 1149 q 510 1100 517 1121 q 515 1065 504 1079 q 544 1051 525 1051 q 581 1065 564 1051 q 604 1100 599 1079 m 661 1100 q 613 1024 650 1054 q 531 993 575 993 q 465 1024 489 993 q 451 1100 440 1054 q 504 1178 464 1147 q 586 1208 544 1208 q 652 1178 631 1208 q 661 1100 674 1147 m 739 997 l 531 189 q 292 0 481 0 l 251 0 q 111 190 63 0 l 319 997 l 453 997 l 243 186 q 285 121 225 121 l 318 121 q 396 186 378 121 l 606 997 l 739 997 z "},"ű":{"ha":544,"x_min":63,"x_max":811,"o":"m 479 1031 l 392 1031 l 515 1214 l 635 1214 l 479 1031 m 654 1031 l 567 1031 l 692 1214 l 811 1214 l 654 1031 m 739 997 l 531 189 q 292 0 481 0 l 251 0 q 111 190 63 0 l 319 997 l 453 997 l 243 186 q 285 121 225 121 l 318 121 q 396 186 378 121 l 606 997 l 739 997 z "},"ţ":{"ha":417,"x_min":67,"x_max":660,"o":"m 83 -190 l 147 -190 q 190 -157 182 -190 l 196 -137 q 171 -99 206 -99 l 115 -99 l 371 886 l 243 886 l 271 997 l 660 997 l 632 886 l 504 886 l 275 0 l 214 0 l 201 -43 l 214 -43 q 269 -124 292 -43 l 257 -176 q 158 -253 236 -251 l 67 -253 l 83 -190 z "},"Ğ":{"ha":542,"x_min":61,"x_max":726,"o":"m 517 1171 q 522 1117 514 1135 q 556 1099 529 1099 q 598 1117 578 1099 q 632 1171 618 1135 l 714 1171 q 676 1101 697 1131 q 630 1053 654 1072 q 581 1026 606 1035 q 535 1017 556 1017 q 489 1026 510 1017 q 454 1053 468 1035 q 435 1101 440 1072 q 436 1171 429 1131 l 517 1171 m 604 490 l 479 0 l 222 0 q 106 169 61 0 l 276 828 q 479 997 321 997 l 565 997 q 682 828 726 997 l 646 688 l 513 688 l 546 818 q 501 876 560 876 l 475 876 q 407 818 421 876 l 242 179 q 286 121 226 121 l 375 121 l 442 379 l 361 379 l 390 490 l 604 490 z "},"İ":{"ha":258,"x_min":63,"x_max":513,"o":"m 513 1200 l 469 1031 l 328 1031 l 371 1200 l 513 1200 m 63 0 l 319 997 l 453 997 l 196 0 l 63 0 z "},"ğ":{"ha":542,"x_min":61,"x_max":726,"o":"m 517 1171 q 522 1117 514 1135 q 556 1099 529 1099 q 598 1117 578 1099 q 632 1171 618 1135 l 714 1171 q 676 1101 697 1131 q 630 1053 654 1072 q 581 1026 606 1035 q 535 1017 556 1017 q 489 1026 510 1017 q 454 1053 468 1035 q 435 1101 440 1072 q 436 1171 429 1131 l 517 1171 m 604 490 l 479 0 l 222 0 q 106 169 61 0 l 276 828 q 479 997 321 997 l 565 997 q 682 828 726 997 l 646 688 l 513 688 l 546 818 q 501 876 560 876 l 475 876 q 407 818 421 876 l 242 179 q 286 121 226 121 l 375 121 l 442 379 l 361 379 l 390 490 l 604 490 z "},"А":{"ha":531,"x_min":56,"x_max":733,"o":"m 467 486 l 553 818 q 510 876 567 876 l 474 876 q 400 818 414 876 l 314 486 l 467 486 m 189 0 l 56 0 l 268 826 q 472 997 314 997 l 572 997 q 688 826 733 997 l 475 0 l 342 0 l 436 365 l 283 365 l 189 0 z "},"а":{"ha":531,"x_min":56,"x_max":733,"o":"m 467 486 l 553 818 q 510 876 567 876 l 474 876 q 400 818 414 876 l 314 486 l 467 486 m 189 0 l 56 0 l 268 826 q 472 997 314 997 l 572 997 q 688 826 733 997 l 475 0 l 342 0 l 436 365 l 283 365 l 189 0 z "},"в":{"ha":531,"x_min":63,"x_max":711,"o":"m 336 546 l 396 546 q 451 560 435 546 q 478 611 468 575 l 531 814 q 490 886 549 886 l 425 886 l 336 546 m 224 111 l 335 111 q 388 154 378 111 l 442 364 q 382 435 460 435 l 308 435 l 224 111 m 499 493 q 581 386 610 493 l 519 149 q 331 0 482 0 l 63 0 l 319 997 l 533 997 q 665 817 711 997 l 610 606 q 499 493 585 515 z "},"е":{"ha":399,"x_min":63,"x_max":614,"o":"m 63 0 l 319 997 l 614 997 l 586 886 l 425 886 l 336 546 l 497 546 l 469 435 l 308 435 l 224 111 l 385 111 l 357 0 l 63 0 z "},"р":{"ha":517,"x_min":63,"x_max":733,"o":"m 324 497 l 360 497 q 413 499 390 497 q 449 510 435 501 q 474 534 464 518 q 490 576 483 550 l 558 842 q 524 886 574 886 l 425 886 l 324 497 m 196 0 l 63 0 l 319 997 l 571 997 q 688 826 733 997 l 618 557 q 583 470 604 504 q 530 416 563 436 q 451 388 497 396 q 343 379 406 379 l 293 379 l 196 0 z "},"с":{"ha":510,"x_min":61,"x_max":726,"o":"m 535 261 l 511 169 q 308 0 467 0 l 222 0 q 106 169 61 0 l 276 828 q 479 997 321 997 l 565 997 q 682 828 726 997 l 646 688 l 513 688 l 549 828 q 504 886 563 886 l 478 886 q 410 828 424 886 l 239 169 q 276 111 224 111 l 310 111 q 378 169 363 111 l 401 261 l 535 261 z "},"т":{"ha":417,"x_min":142,"x_max":660,"o":"m 504 886 l 275 0 l 142 0 l 371 886 l 243 886 l 271 997 l 660 997 l 632 886 l 504 886 z "},"у":{"ha":486,"x_min":94,"x_max":729,"o":"m 397 588 l 597 997 l 729 997 l 235 0 l 94 0 l 260 325 l 271 997 l 403 997 l 393 588 l 397 588 z "},"О":{"ha":558,"x_min":61,"x_max":754,"o":"m 344 111 q 404 163 390 111 l 578 835 q 539 886 592 886 l 476 886 q 411 835 425 886 l 238 163 q 276 111 224 111 l 344 111 m 224 0 q 106 169 61 0 l 275 826 q 479 997 321 997 l 593 997 q 708 826 754 997 l 539 169 q 335 0 494 0 l 224 0 z "},"М":{"ha":667,"x_min":63,"x_max":861,"o":"m 439 411 l 714 997 l 861 997 l 604 0 l 471 0 l 653 653 l 431 181 l 328 181 l 350 653 l 196 0 l 63 0 l 319 997 l 467 997 l 439 411 z "},"Н":{"ha":544,"x_min":63,"x_max":739,"o":"m 349 0 l 461 435 l 308 435 l 196 0 l 63 0 l 319 997 l 453 997 l 336 546 l 489 546 l 606 997 l 739 997 l 482 0 l 349 0 z "},"Я":{"ha":524,"x_min":49,"x_max":733,"o":"m 569 876 l 482 876 q 403 804 421 876 l 347 589 q 389 517 329 517 l 476 517 l 569 876 m 49 0 l 249 415 q 213 581 178 451 l 275 826 q 472 997 321 997 l 733 997 l 476 0 l 343 0 l 447 403 l 367 403 l 175 0 l 49 0 z "},"В":{"ha":531,"x_min":63,"x_max":711,"o":"m 336 546 l 396 546 q 451 560 435 546 q 478 611 468 575 l 531 814 q 490 886 549 886 l 425 886 l 336 546 m 224 111 l 335 111 q 388 154 378 111 l 442 364 q 382 435 460 435 l 308 435 l 224 111 m 499 493 q 581 386 610 493 l 519 149 q 331 0 482 0 l 63 0 l 319 997 l 533 997 q 665 817 711 997 l 610 606 q 499 493 585 515 z "},"Р":{"ha":517,"x_min":63,"x_max":733,"o":"m 322 490 l 344 490 q 443 514 407 490 q 493 590 479 538 l 558 842 q 524 886 574 886 l 425 886 l 322 490 m 196 0 l 63 0 l 319 997 l 571 997 q 688 826 733 997 l 629 599 q 522 437 601 494 q 315 379 442 379 l 293 379 l 196 0 z "},"С":{"ha":510,"x_min":61,"x_max":726,"o":"m 535 261 l 511 169 q 308 0 467 0 l 222 0 q 106 169 61 0 l 276 828 q 479 997 321 997 l 565 997 q 682 828 726 997 l 646 688 l 513 688 l 549 828 q 504 886 563 886 l 478 886 q 410 828 424 886 l 239 169 q 276 111 224 111 l 310 111 q 378 169 363 111 l 401 261 l 535 261 z "},"Т":{"ha":417,"x_min":142,"x_max":660,"o":"m 504 886 l 275 0 l 142 0 l 371 886 l 243 886 l 271 997 l 660 997 l 632 886 l 504 886 z "},"У":{"ha":486,"x_min":94,"x_max":729,"o":"m 397 588 l 597 997 l 729 997 l 235 0 l 94 0 l 260 325 l 271 997 l 403 997 l 393 588 l 397 588 z "},"ѕ":{"ha":514,"x_min":54,"x_max":711,"o":"m 228 153 q 257 111 217 111 l 314 111 q 364 153 356 111 l 417 356 q 417 392 424 382 q 397 410 410 401 l 271 508 q 230 579 233 539 q 236 661 226 619 l 278 840 q 350 962 301 926 q 479 997 399 997 l 550 997 q 665 826 711 997 l 631 688 l 497 688 l 538 843 q 507 886 550 886 l 468 886 q 413 842 424 886 l 361 640 q 363 603 354 613 q 386 585 371 594 l 511 485 q 549 431 544 461 q 542 349 554 401 l 499 154 q 427 35 476 69 q 297 0 378 0 l 215 0 q 103 183 54 0 l 122 260 l 256 260 l 228 153 z "},"Ѕ":{"ha":514,"x_min":54,"x_max":711,"o":"m 228 153 q 257 111 217 111 l 314 111 q 364 153 356 111 l 417 356 q 417 392 424 382 q 397 410 410 401 l 271 508 q 230 579 233 539 q 236 661 226 619 l 278 840 q 350 962 301 926 q 479 997 399 997 l 550 997 q 665 826 711 997 l 631 688 l 497 688 l 538 843 q 507 886 550 886 l 468 886 q 413 842 424 886 l 361 640 q 363 603 354 613 q 386 585 371 594 l 511 485 q 549 431 544 461 q 542 349 554 401 l 499 154 q 427 35 476 69 q 297 0 378 0 l 215 0 q 103 183 54 0 l 122 260 l 256 260 l 228 153 z "},"г":{"ha":385,"x_min":63,"x_max":614,"o":"m 586 886 l 425 886 l 196 0 l 63 0 l 319 997 l 614 997 l 586 886 z "},"Ь":{"ha":517,"x_min":63,"x_max":579,"o":"m 224 111 l 322 111 q 363 131 346 111 q 389 183 381 151 l 435 363 q 442 403 442 389 q 435 425 443 418 q 413 433 428 432 q 371 435 397 435 l 308 435 l 224 111 m 336 546 l 400 546 q 501 535 463 546 q 559 502 540 525 q 578 442 578 479 q 565 354 579 406 l 526 199 q 448 51 501 103 q 314 0 394 0 l 63 0 l 319 997 l 453 997 l 336 546 z "},"Г":{"ha":385,"x_min":63,"x_max":614,"o":"m 586 886 l 425 886 l 196 0 l 63 0 l 319 997 l 614 997 l 586 886 z "},"ј":{"ha":371,"x_min":28,"x_max":565,"o":"m 56 111 l 161 111 q 217 164 204 111 l 432 997 l 565 997 l 351 168 q 154 0 308 0 l 28 0 l 56 111 z "},"І":{"ha":258,"x_min":63,"x_max":453,"o":"m 63 0 l 319 997 l 453 997 l 196 0 l 63 0 z "},"Ї":{"ha":258,"x_min":63,"x_max":585,"o":"m 390 1169 l 356 1031 l 244 1031 l 279 1169 l 390 1169 m 585 1169 l 550 1031 l 439 1031 l 474 1169 l 585 1169 m 63 0 l 319 997 l 453 997 l 196 0 l 63 0 z "},"№":{"ha":885,"x_min":63,"x_max":985,"o":"m 528 0 l 550 89 l 844 89 l 822 0 l 528 0 m 804 544 q 765 513 774 544 l 696 244 q 718 213 688 213 l 739 213 q 779 244 771 213 l 849 513 q 825 544 857 544 l 804 544 m 679 126 q 590 244 560 126 l 660 514 q 810 632 690 632 l 864 632 q 954 514 985 632 l 885 244 q 733 126 854 126 l 679 126 m 596 997 l 729 997 l 472 0 l 339 0 l 390 199 l 364 653 l 196 0 l 63 0 l 319 997 l 453 997 l 472 515 l 596 997 z "},"є":{"ha":510,"x_min":61,"x_max":726,"o":"m 311 449 l 239 169 q 276 111 224 111 l 310 111 q 378 169 363 111 l 401 261 l 535 261 l 511 169 q 308 0 467 0 l 222 0 q 106 169 61 0 l 276 828 q 479 997 321 997 l 565 997 q 682 828 726 997 l 646 688 l 513 688 l 549 828 q 504 886 563 886 l 478 886 q 410 828 424 886 l 336 546 l 471 546 l 446 449 l 311 449 z "},"Ј":{"ha":371,"x_min":28,"x_max":565,"o":"m 56 111 l 161 111 q 217 164 204 111 l 432 997 l 565 997 l 351 168 q 154 0 308 0 l 28 0 l 56 111 z "},"ѓ":{"ha":385,"x_min":63,"x_max":614,"o":"m 472 1031 l 378 1031 l 488 1208 l 610 1208 l 472 1031 m 586 886 l 425 886 l 196 0 l 63 0 l 319 997 l 614 997 l 586 886 z "},"Ѓ":{"ha":385,"x_min":63,"x_max":614,"o":"m 472 1031 l 378 1031 l 488 1208 l 610 1208 l 472 1031 m 586 886 l 425 886 l 196 0 l 63 0 l 319 997 l 614 997 l 586 886 z "},"Ђ":{"ha":617,"x_min":142,"x_max":667,"o":"m 325 -19 l 368 -19 q 410 -1 396 -19 q 431 39 425 17 l 514 363 q 522 403 521 389 q 516 425 522 418 q 494 433 510 432 q 451 435 478 435 l 388 435 l 275 0 l 142 0 l 371 886 l 243 886 l 271 997 l 660 997 l 632 886 l 504 886 l 415 546 l 500 546 q 599 538 563 546 q 651 509 635 529 q 665 454 667 489 q 649 368 663 419 l 564 42 q 490 -92 540 -54 q 358 -131 439 -131 l 296 -131 l 325 -19 z "},"И":{"ha":535,"x_min":63,"x_max":729,"o":"m 339 0 l 474 525 l 232 143 l 196 0 l 63 0 l 319 997 l 453 997 l 314 460 l 564 872 l 596 997 l 729 997 l 472 0 l 339 0 z "},"Е":{"ha":399,"x_min":63,"x_max":614,"o":"m 63 0 l 319 997 l 614 997 l 586 886 l 425 886 l 336 546 l 497 546 l 469 435 l 308 435 l 224 111 l 385 111 l 357 0 l 63 0 z "},"Х":{"ha":458,"x_min":14,"x_max":688,"o":"m 433 508 l 444 0 l 325 0 l 319 349 l 317 349 l 133 0 l 14 0 l 285 508 l 285 997 l 406 997 l 401 671 l 404 671 l 567 997 l 688 997 l 433 508 z "},"х":{"ha":458,"x_min":14,"x_max":688,"o":"m 433 508 l 444 0 l 325 0 l 319 349 l 317 349 l 133 0 l 14 0 l 285 508 l 285 997 l 406 997 l 401 671 l 404 671 l 567 997 l 688 997 l 433 508 z "},"ъ":{"ha":599,"x_min":144,"x_max":661,"o":"m 306 111 l 404 111 q 445 131 428 111 q 471 183 463 151 l 517 363 q 524 403 524 389 q 517 425 525 418 q 494 433 510 432 q 453 435 479 435 l 390 435 l 306 111 m 418 546 l 482 546 q 583 535 544 546 q 641 502 622 525 q 660 442 660 479 q 647 354 661 406 l 608 199 q 530 51 583 103 q 396 0 476 0 l 144 0 l 374 886 l 229 886 l 257 997 l 535 997 l 418 546 z "},"Ы":{"ha":786,"x_min":63,"x_max":981,"o":"m 590 0 l 847 997 l 981 997 l 724 0 l 590 0 m 224 111 l 322 111 q 363 131 346 111 q 389 183 381 151 l 435 363 q 442 403 442 389 q 435 425 443 418 q 413 433 428 432 q 371 435 397 435 l 308 435 l 224 111 m 336 546 l 400 546 q 501 535 463 546 q 559 502 540 525 q 578 442 578 479 q 565 354 579 406 l 526 199 q 448 51 501 103 q 314 0 394 0 l 63 0 l 319 997 l 453 997 l 336 546 z "},"Ъ":{"ha":599,"x_min":144,"x_max":667,"o":"m 306 111 l 404 111 q 445 131 428 111 q 471 183 463 151 l 517 363 q 524 403 524 389 q 517 425 525 418 q 494 433 510 432 q 453 435 479 435 l 390 435 l 306 111 m 418 546 l 496 546 q 596 538 558 546 q 650 509 633 529 q 666 454 667 489 q 651 368 665 419 l 600 171 q 526 38 576 75 q 396 0 476 0 l 144 0 l 374 886 l 229 886 l 257 997 l 535 997 l 418 546 z "},"Э":{"ha":510,"x_min":40,"x_max":706,"o":"m 456 549 l 528 828 q 490 886 542 886 l 457 886 q 389 828 403 886 l 365 736 l 232 736 l 256 828 q 458 997 300 997 l 544 997 q 661 828 706 997 l 490 169 q 288 0 446 0 l 201 0 q 85 169 40 0 l 121 310 l 254 310 l 218 169 q 263 111 203 111 l 289 111 q 357 169 342 111 l 431 451 l 296 451 l 321 549 l 456 549 z "},"ь":{"ha":517,"x_min":63,"x_max":590,"o":"m 224 111 l 317 111 q 365 136 347 111 q 389 183 383 161 l 435 363 q 444 403 442 389 q 441 425 446 418 q 423 433 436 432 q 386 435 410 435 l 308 435 l 224 111 m 350 546 l 442 546 q 537 535 504 546 q 580 502 569 525 q 585 442 590 479 q 565 354 579 406 l 519 175 q 446 44 497 89 q 314 0 394 0 l 63 0 l 319 997 l 453 997 l 350 546 z "},"я":{"ha":518,"x_min":49,"x_max":733,"o":"m 569 876 l 482 876 q 403 804 421 876 l 347 589 q 389 517 329 517 l 476 517 l 569 876 m 49 0 l 249 415 q 213 581 178 451 l 275 826 q 472 997 321 997 l 733 997 l 476 0 l 343 0 l 447 403 l 367 403 l 175 0 l 49 0 z "},"о":{"ha":558,"x_min":61,"x_max":754,"o":"m 344 111 q 404 163 390 111 l 578 835 q 539 886 592 886 l 476 886 q 411 835 425 886 l 238 163 q 276 111 224 111 l 344 111 m 224 0 q 106 169 61 0 l 275 826 q 479 997 321 997 l 593 997 q 708 826 754 997 l 539 169 q 335 0 494 0 l 224 0 z "},"н":{"ha":544,"x_min":63,"x_max":739,"o":"m 349 0 l 461 435 l 308 435 l 196 0 l 63 0 l 319 997 l 453 997 l 336 546 l 489 546 l 606 997 l 739 997 l 482 0 l 349 0 z "},"м":{"ha":667,"x_min":63,"x_max":861,"o":"m 439 411 l 714 997 l 861 997 l 604 0 l 471 0 l 653 653 l 431 181 l 328 181 l 350 653 l 196 0 l 63 0 l 319 997 l 467 997 l 439 411 z "},"к":{"ha":492,"x_min":63,"x_max":735,"o":"m 324 494 q 401 592 372 539 q 453 701 431 646 q 495 807 475 756 q 545 899 515 858 q 619 967 575 940 q 735 997 664 993 l 704 875 q 640 834 664 875 q 593 733 617 793 q 538 606 569 674 q 449 488 506 539 l 492 0 l 358 0 l 321 486 l 196 0 l 63 0 l 319 997 l 453 997 l 324 494 z "},"ы":{"ha":786,"x_min":63,"x_max":981,"o":"m 590 0 l 847 997 l 981 997 l 724 0 l 590 0 m 224 111 l 322 111 q 363 131 346 111 q 389 183 381 151 l 435 363 q 442 403 442 389 q 435 425 443 418 q 413 433 428 432 q 371 435 397 435 l 308 435 l 224 111 m 336 546 l 414 546 q 514 538 476 546 q 569 512 551 531 q 586 463 586 493 q 575 388 586 433 l 522 185 q 446 44 497 89 q 314 0 394 0 l 63 0 l 319 997 l 453 997 l 336 546 z "},"К":{"ha":492,"x_min":63,"x_max":735,"o":"m 324 494 q 401 592 372 539 q 453 701 431 646 q 495 807 475 756 q 545 899 515 858 q 619 967 575 940 q 735 997 664 993 l 704 875 q 640 834 664 875 q 593 733 617 793 q 538 606 569 674 q 449 488 506 539 l 492 0 l 358 0 l 321 486 l 196 0 l 63 0 l 319 997 l 453 997 l 324 494 z "},"Ж":{"ha":725,"x_min":0,"x_max":968,"o":"m 553 997 l 686 997 l 557 494 q 635 592 606 539 q 686 701 664 646 q 728 807 708 756 q 778 899 749 858 q 853 967 808 940 q 968 997 897 993 l 938 875 q 874 834 897 875 q 826 733 850 793 q 771 606 803 674 q 682 488 739 539 l 725 0 l 592 0 l 554 486 l 429 0 l 296 0 l 421 486 l 133 0 l 0 0 l 293 488 q 269 564 274 522 q 268 649 265 606 q 277 733 271 692 q 284 805 283 774 q 276 856 285 836 q 240 875 267 875 l 271 997 q 370 967 339 993 q 410 899 401 940 q 412 807 418 858 q 400 701 406 756 q 397 592 394 646 q 424 494 399 539 l 553 997 z "},"Ч":{"ha":517,"x_min":131,"x_max":711,"o":"m 321 0 l 410 347 l 292 347 q 175 518 131 347 l 299 997 l 432 997 l 304 503 q 340 458 292 458 l 439 458 l 578 997 l 711 997 l 454 0 l 321 0 z "},"ч":{"ha":517,"x_min":192,"x_max":731,"o":"m 340 0 l 453 435 l 325 435 q 218 470 244 435 q 214 592 192 506 l 318 997 l 451 997 l 346 590 q 382 546 333 546 l 481 546 l 597 997 l 731 997 l 474 0 l 340 0 z "},"д":{"ha":626,"x_min":-65,"x_max":818,"o":"m 657 886 l 524 886 q 466 676 492 765 q 417 517 440 586 q 372 396 394 449 q 328 297 350 343 q 280 207 306 251 q 225 111 254 163 l 456 111 l 657 886 m 133 0 l 67 -253 l -65 -253 l 28 111 l 78 111 q 142 218 113 167 q 197 324 171 269 q 249 441 224 378 q 300 584 274 504 q 355 765 326 664 q 418 997 383 865 l 818 997 l 589 111 l 654 111 l 560 -253 l 426 -253 l 493 0 l 133 0 z "},"Њ":{"ha":803,"x_min":63,"x_max":868,"o":"m 510 111 l 608 111 q 631 118 621 111 q 651 136 642 125 q 666 160 660 147 q 675 183 672 172 l 721 363 q 728 403 728 389 q 723 425 729 418 q 701 433 717 432 q 658 435 685 435 l 594 435 l 510 111 m 622 546 l 700 546 q 799 535 763 546 q 852 502 836 525 q 867 442 868 479 q 851 354 865 406 l 808 185 q 732 44 783 89 q 600 0 681 0 l 349 0 l 461 435 l 308 435 l 196 0 l 63 0 l 319 997 l 453 997 l 336 546 l 489 546 l 606 997 l 739 997 l 622 546 z "},"Ћ":{"ha":617,"x_min":142,"x_max":696,"o":"m 504 886 l 415 546 l 533 546 q 650 375 696 546 l 554 0 l 421 0 l 521 390 q 486 435 536 435 l 388 435 l 275 0 l 142 0 l 371 886 l 243 886 l 271 997 l 660 997 l 632 886 l 504 886 z "},"і":{"ha":258,"x_min":63,"x_max":457,"o":"m 457 997 l 414 828 l 272 828 l 315 997 l 457 997 m 63 0 l 261 772 l 394 772 l 196 0 l 63 0 z "},"ё":{"ha":399,"x_min":63,"x_max":672,"o":"m 672 1201 l 636 1063 l 525 1063 l 561 1201 l 672 1201 m 478 1201 l 442 1063 l 331 1063 l 367 1201 l 478 1201 m 63 0 l 319 997 l 614 997 l 586 886 l 425 886 l 336 546 l 497 546 l 469 435 l 308 435 l 224 111 l 385 111 l 357 0 l 63 0 z "},"П":{"ha":553,"x_min":63,"x_max":747,"o":"m 63 0 l 319 997 l 747 997 l 490 0 l 357 0 l 586 886 l 425 886 l 196 0 l 63 0 z "},"п":{"ha":553,"x_min":63,"x_max":747,"o":"m 63 0 l 319 997 l 747 997 l 490 0 l 357 0 l 586 886 l 425 886 l 196 0 l 63 0 z "},"Є":{"ha":510,"x_min":61,"x_max":726,"o":"m 311 449 l 239 169 q 276 111 224 111 l 310 111 q 378 169 363 111 l 401 261 l 535 261 l 511 169 q 308 0 467 0 l 222 0 q 106 169 61 0 l 276 828 q 479 997 321 997 l 565 997 q 682 828 726 997 l 646 688 l 513 688 l 549 828 q 504 886 563 886 l 478 886 q 410 828 424 886 l 336 546 l 471 546 l 446 449 l 311 449 z "},"ю":{"ha":807,"x_min":63,"x_max":1003,"o":"m 593 111 q 653 163 639 111 l 826 835 q 788 886 840 886 l 725 886 q 660 835 674 886 l 486 163 q 525 111 472 111 l 593 111 m 472 0 q 354 169 310 0 l 432 469 l 317 469 l 196 0 l 63 0 l 319 997 l 453 997 l 349 592 l 464 592 l 524 826 q 728 997 569 997 l 842 997 q 957 826 1003 997 l 788 169 q 583 0 743 0 l 472 0 z "},"Ю":{"ha":807,"x_min":63,"x_max":1003,"o":"m 593 111 q 653 163 639 111 l 826 835 q 788 886 840 886 l 725 886 q 660 835 674 886 l 486 163 q 525 111 472 111 l 593 111 m 472 0 q 354 169 310 0 l 432 469 l 317 469 l 196 0 l 63 0 l 319 997 l 453 997 l 349 592 l 464 592 l 524 826 q 728 997 569 997 l 842 997 q 957 826 1003 997 l 788 169 q 583 0 743 0 l 472 0 z "},"и":{"ha":535,"x_min":63,"x_max":729,"o":"m 339 0 l 474 525 l 232 143 l 196 0 l 63 0 l 319 997 l 453 997 l 314 460 l 564 872 l 596 997 l 729 997 l 472 0 l 339 0 z "},"Й":{"ha":535,"x_min":63,"x_max":729,"o":"m 513 1185 q 518 1131 510 1149 q 553 1113 526 1113 q 594 1131 575 1113 q 628 1185 614 1149 l 710 1185 q 672 1115 693 1144 q 626 1067 650 1086 q 577 1040 601 1049 q 532 1031 553 1031 q 486 1040 507 1031 q 451 1067 465 1049 q 431 1115 436 1086 q 432 1185 425 1144 l 513 1185 m 339 0 l 474 525 l 232 143 l 196 0 l 63 0 l 319 997 l 453 997 l 314 460 l 564 872 l 596 997 l 729 997 l 472 0 l 339 0 z "},"Б":{"ha":517,"x_min":63,"x_max":689,"o":"m 224 111 l 322 111 q 363 131 346 111 q 389 183 381 151 l 454 435 q 461 475 461 461 q 454 497 461 490 q 431 506 447 504 q 389 507 415 507 l 326 507 l 224 111 m 356 618 l 419 618 q 521 608 482 618 q 578 574 560 597 q 598 515 597 551 q 585 426 599 478 l 526 199 q 448 51 501 103 q 314 0 394 0 l 63 0 l 319 997 l 689 997 l 661 888 l 425 888 l 356 618 z "},"Ё":{"ha":399,"x_min":63,"x_max":672,"o":"m 672 1201 l 636 1063 l 525 1063 l 561 1201 l 672 1201 m 478 1201 l 442 1063 l 331 1063 l 367 1201 l 478 1201 m 63 0 l 319 997 l 614 997 l 586 886 l 425 886 l 336 546 l 497 546 l 469 435 l 308 435 l 224 111 l 385 111 l 357 0 l 63 0 z "},"ћ":{"ha":538,"x_min":63,"x_max":601,"o":"m 63 0 l 256 747 l 193 747 l 221 858 l 283 858 l 319 997 l 453 997 l 417 858 l 600 858 l 572 747 l 389 747 l 336 546 l 454 546 q 568 517 535 546 q 579 403 601 488 l 475 0 l 342 0 l 442 390 q 407 435 457 435 l 308 435 l 196 0 l 63 0 z "},"њ":{"ha":803,"x_min":63,"x_max":875,"o":"m 510 111 l 608 111 q 649 129 632 111 q 671 169 667 147 l 721 363 q 728 403 728 389 q 723 425 729 418 q 701 433 717 432 q 658 435 685 435 l 594 435 l 510 111 m 622 546 l 714 546 q 812 538 776 546 q 861 509 847 529 q 872 454 875 489 q 856 368 869 419 l 799 150 q 769 74 786 103 q 727 28 751 44 q 672 6 703 11 q 600 0 640 0 l 349 0 l 461 435 l 308 435 l 196 0 l 63 0 l 319 997 l 453 997 l 336 546 l 489 546 l 606 997 l 739 997 l 622 546 z "},"й":{"ha":535,"x_min":63,"x_max":729,"o":"m 513 1185 q 518 1131 510 1149 q 553 1113 526 1113 q 594 1131 575 1113 q 628 1185 614 1149 l 710 1185 q 672 1115 693 1144 q 626 1067 650 1086 q 577 1040 601 1049 q 532 1031 553 1031 q 486 1040 507 1031 q 451 1067 465 1049 q 431 1115 436 1086 q 432 1185 425 1144 l 513 1185 m 339 0 l 474 525 l 232 143 l 196 0 l 63 0 l 319 997 l 453 997 l 314 460 l 564 872 l 596 997 l 729 997 l 472 0 l 339 0 z "},"ї":{"ha":258,"x_min":63,"x_max":585,"o":"m 390 1169 l 356 1031 l 244 1031 l 279 1169 l 390 1169 m 585 1169 l 550 1031 l 439 1031 l 474 1169 l 585 1169 m 63 0 l 319 997 l 453 997 l 196 0 l 63 0 z "},"э":{"ha":510,"x_min":40,"x_max":706,"o":"m 456 549 l 528 828 q 490 886 542 886 l 457 886 q 389 828 403 886 l 365 736 l 232 736 l 256 828 q 458 997 300 997 l 544 997 q 661 828 706 997 l 490 169 q 288 0 446 0 l 201 0 q 85 169 40 0 l 121 310 l 254 310 l 218 169 q 263 111 203 111 l 289 111 q 357 169 342 111 l 431 451 l 296 451 l 321 549 l 456 549 z "},"Ш":{"ha":847,"x_min":63,"x_max":1042,"o":"m 1042 997 l 785 0 l 63 0 l 319 997 l 453 997 l 224 111 l 385 111 l 614 997 l 747 997 l 518 111 l 679 111 l 908 997 l 1042 997 z "},"Щ":{"ha":847,"x_min":63,"x_max":1042,"o":"m 647 -253 l 714 0 l 63 0 l 319 997 l 453 997 l 224 111 l 385 111 l 614 997 l 747 997 l 518 111 l 679 111 l 908 997 l 1042 997 l 790 25 l 853 25 l 781 -253 l 647 -253 z "},"б":{"ha":517,"x_min":63,"x_max":689,"o":"m 224 111 l 322 111 q 363 131 346 111 q 389 183 381 151 l 454 435 q 461 475 461 461 q 454 497 461 490 q 431 506 447 504 q 389 507 415 507 l 326 507 l 224 111 m 356 618 l 419 618 q 521 608 482 618 q 578 574 560 597 q 598 515 597 551 q 585 426 599 478 l 526 199 q 448 51 501 103 q 314 0 394 0 l 63 0 l 319 997 l 689 997 l 661 888 l 425 888 l 356 618 z "},"Ў":{"ha":486,"x_min":94,"x_max":729,"o":"m 483 1185 q 489 1131 481 1149 q 524 1113 497 1113 q 565 1131 546 1113 q 599 1185 585 1149 l 681 1185 q 642 1115 664 1144 q 597 1067 621 1086 q 548 1040 572 1049 q 503 1031 524 1031 q 457 1040 478 1031 q 422 1067 436 1049 q 401 1115 407 1086 q 403 1185 396 1144 l 483 1185 m 397 588 l 597 997 l 729 997 l 235 0 l 94 0 l 260 325 l 271 997 l 403 997 l 393 588 l 397 588 z "},"ў":{"ha":486,"x_min":94,"x_max":729,"o":"m 483 1185 q 489 1131 481 1149 q 524 1113 497 1113 q 565 1131 546 1113 q 599 1185 585 1149 l 681 1185 q 642 1115 664 1144 q 597 1067 621 1086 q 548 1040 572 1049 q 503 1031 524 1031 q 457 1040 478 1031 q 422 1067 436 1049 q 401 1115 407 1086 q 403 1185 396 1144 l 483 1185 m 397 588 l 597 997 l 729 997 l 235 0 l 94 0 l 260 325 l 271 997 l 403 997 l 393 588 l 397 588 z "},"џ":{"ha":553,"x_min":63,"x_max":747,"o":"m 144 -253 l 211 0 l 63 0 l 319 997 l 453 997 l 224 111 l 385 111 l 614 997 l 747 997 l 490 0 l 344 0 l 278 -253 l 144 -253 z "},"Ц":{"ha":553,"x_min":63,"x_max":747,"o":"m 747 997 l 496 25 l 558 25 l 486 -253 l 353 -253 l 419 0 l 63 0 l 319 997 l 453 997 l 224 111 l 385 111 l 614 997 l 747 997 z "},"Џ":{"ha":553,"x_min":63,"x_max":747,"o":"m 144 -253 l 211 0 l 63 0 l 319 997 l 453 997 l 224 111 l 385 111 l 614 997 l 747 997 l 490 0 l 344 0 l 278 -253 l 144 -253 z "},"ш":{"ha":847,"x_min":63,"x_max":1042,"o":"m 1042 997 l 785 0 l 63 0 l 319 997 l 453 997 l 224 111 l 385 111 l 614 997 l 747 997 l 518 111 l 679 111 l 908 997 l 1042 997 z "},"ф":{"ha":703,"x_min":61,"x_max":899,"o":"m 313 111 l 514 886 l 476 886 q 411 835 425 886 l 238 163 q 276 111 224 111 l 313 111 m 647 886 l 446 111 l 489 111 q 549 163 535 111 l 722 835 q 683 886 736 886 l 647 886 m 249 -139 l 285 0 l 224 0 q 106 169 61 0 l 275 826 q 479 997 321 997 l 542 997 l 578 1136 l 711 1136 l 675 997 l 738 997 q 853 826 899 997 l 683 169 q 479 0 639 0 l 418 0 l 382 -139 l 249 -139 z "},"љ":{"ha":831,"x_min":0,"x_max":878,"o":"m 517 111 l 615 111 q 656 131 639 111 q 682 183 674 151 l 728 363 q 735 403 735 389 q 728 425 736 418 q 706 433 721 432 q 664 435 690 435 l 601 435 l 517 111 m 629 546 l 707 546 q 807 538 769 546 q 861 509 844 529 q 877 454 878 489 q 863 368 876 419 l 813 174 q 738 39 788 78 q 607 0 688 0 l 356 0 l 585 886 l 424 886 l 238 169 q 35 0 193 0 l 0 0 l 28 111 q 104 169 89 111 l 318 997 l 746 997 l 629 546 z "},"щ":{"ha":847,"x_min":63,"x_max":1042,"o":"m 647 -253 l 714 0 l 63 0 l 319 997 l 453 997 l 224 111 l 385 111 l 614 997 l 747 997 l 518 111 l 679 111 l 908 997 l 1042 997 l 790 25 l 853 25 l 781 -253 l 647 -253 z "},"З":{"ha":518,"x_min":51,"x_max":704,"o":"m 490 513 q 569 414 590 497 l 506 169 q 303 0 461 0 l 213 0 q 96 169 51 0 l 119 261 l 253 261 l 228 165 q 256 121 217 121 l 319 121 q 371 165 360 121 l 429 388 q 381 450 443 450 l 331 450 l 360 563 l 399 563 q 471 617 458 563 l 526 831 q 496 875 539 875 l 447 875 q 396 831 408 875 l 367 715 l 233 715 l 261 826 q 465 997 307 997 l 543 997 q 658 826 704 997 l 604 614 q 490 513 582 526 z "},"Ф":{"ha":703,"x_min":61,"x_max":899,"o":"m 313 111 l 514 886 l 476 886 q 411 835 425 886 l 238 163 q 276 111 224 111 l 313 111 m 647 886 l 446 111 l 489 111 q 549 163 535 111 l 722 835 q 683 886 736 886 l 647 886 m 249 -139 l 285 0 l 224 0 q 106 169 61 0 l 275 826 q 479 997 321 997 l 542 997 l 578 1136 l 711 1136 l 675 997 l 738 997 q 853 826 899 997 l 683 169 q 479 0 639 0 l 418 0 l 382 -139 l 249 -139 z "},"ц":{"ha":553,"x_min":63,"x_max":747,"o":"m 747 997 l 496 25 l 558 25 l 486 -253 l 353 -253 l 419 0 l 63 0 l 319 997 l 453 997 l 224 111 l 385 111 l 614 997 l 747 997 z "},"ж":{"ha":725,"x_min":0,"x_max":968,"o":"m 553 997 l 686 997 l 557 494 q 635 592 606 539 q 686 701 664 646 q 728 807 708 756 q 778 899 749 858 q 853 967 808 940 q 968 997 897 993 l 938 875 q 874 834 897 875 q 826 733 850 793 q 771 606 803 674 q 682 488 739 539 l 725 0 l 592 0 l 554 486 l 429 0 l 296 0 l 421 486 l 133 0 l 0 0 l 293 488 q 269 564 274 522 q 268 649 265 606 q 277 733 271 692 q 284 805 283 774 q 276 856 285 836 q 240 875 267 875 l 271 997 q 370 967 339 993 q 410 899 401 940 q 412 807 418 858 q 400 701 406 756 q 397 592 394 646 q 424 494 399 539 l 553 997 z "},"з":{"ha":518,"x_min":51,"x_max":704,"o":"m 490 513 q 569 414 590 497 l 506 169 q 303 0 461 0 l 213 0 q 96 169 51 0 l 119 261 l 253 261 l 228 165 q 256 121 217 121 l 319 121 q 371 165 360 121 l 429 388 q 381 450 443 450 l 331 450 l 360 563 l 399 563 q 471 617 458 563 l 526 831 q 496 875 539 875 l 447 875 q 396 831 408 875 l 367 715 l 233 715 l 261 826 q 465 997 307 997 l 543 997 q 658 826 704 997 l 604 614 q 490 513 582 526 z "},"Л":{"ha":551,"x_min":0,"x_max":746,"o":"m 585 886 l 424 886 l 238 169 q 35 0 193 0 l 0 0 l 28 111 q 104 169 89 111 l 318 997 l 746 997 l 489 0 l 356 0 l 585 886 z "},"ђ":{"ha":561,"x_min":86,"x_max":665,"o":"m 269 -19 l 313 -19 q 335 -12 325 -19 q 355 6 346 -6 q 369 29 364 17 q 378 53 375 42 l 458 363 q 466 403 465 389 q 460 425 467 418 q 438 433 454 432 q 396 435 422 435 l 332 435 l 219 0 l 86 0 l 279 747 l 193 747 l 221 858 l 307 858 l 343 997 l 476 997 l 440 858 l 665 858 l 638 747 l 413 747 l 360 546 l 438 546 q 537 535 500 546 q 590 502 574 525 q 604 442 606 479 q 589 354 603 406 l 513 54 q 435 -86 488 -42 q 303 -131 383 -131 l 240 -131 l 269 -19 z "},"л":{"ha":551,"x_min":0,"x_max":746,"o":"m 585 886 l 424 886 l 238 169 q 35 0 193 0 l 0 0 l 29 114 q 78 126 60 114 q 106 172 96 139 l 318 997 l 746 997 l 489 0 l 356 0 l 585 886 z "},"Ќ":{"ha":492,"x_min":63,"x_max":735,"o":"m 589 1031 l 494 1031 l 604 1208 l 726 1208 l 589 1031 m 324 494 q 401 592 372 539 q 453 701 431 646 q 495 807 475 756 q 545 899 515 858 q 619 967 575 940 q 735 997 664 993 l 704 875 q 640 834 664 875 q 593 733 617 793 q 538 606 569 674 q 449 488 506 539 l 492 0 l 358 0 l 321 486 l 196 0 l 63 0 l 319 997 l 453 997 l 324 494 z "},"Љ":{"ha":831,"x_min":0,"x_max":878,"o":"m 517 111 l 615 111 q 656 131 639 111 q 682 183 674 151 l 728 363 q 735 403 735 389 q 728 425 736 418 q 706 433 721 432 q 664 435 690 435 l 601 435 l 517 111 m 629 546 l 707 546 q 807 538 769 546 q 861 509 844 529 q 877 454 878 489 q 863 368 876 419 l 811 171 q 738 38 788 75 q 607 0 688 0 l 356 0 l 585 886 l 424 886 l 238 169 q 35 0 193 0 l 0 0 l 28 111 q 104 169 89 111 l 318 997 l 746 997 l 629 546 z "},"ќ":{"ha":492,"x_min":63,"x_max":735,"o":"m 589 1031 l 494 1031 l 604 1208 l 726 1208 l 589 1031 m 324 494 q 401 592 372 539 q 453 701 431 646 q 495 807 475 756 q 545 899 515 858 q 619 967 575 940 q 735 997 664 993 l 704 875 q 640 834 664 875 q 593 733 617 793 q 538 606 569 674 q 449 488 506 539 l 492 0 l 358 0 l 321 486 l 196 0 l 63 0 l 319 997 l 453 997 l 324 494 z "},"Д":{"ha":626,"x_min":-65,"x_max":818,"o":"m 657 886 l 524 886 q 466 676 492 765 q 417 517 440 586 q 372 396 394 449 q 328 297 350 343 q 280 207 306 251 q 225 111 254 163 l 456 111 l 657 886 m 133 0 l 67 -253 l -65 -253 l 28 111 l 78 111 q 142 218 113 167 q 197 324 171 269 q 249 441 224 378 q 300 584 274 504 q 355 765 326 664 q 418 997 383 865 l 818 997 l 589 111 l 654 111 l 560 -253 l 426 -253 l 493 0 l 133 0 z "},"ґ":{"ha":544,"x_min":63,"x_max":739,"o":"m 308 435 l 196 0 l 63 0 l 203 546 l 489 546 l 606 997 l 739 997 l 594 435 l 308 435 z "},"Ґ":{"ha":544,"x_min":63,"x_max":775,"o":"m 389 747 l 196 0 l 63 0 l 283 858 l 569 858 l 642 1136 l 775 1136 l 675 747 l 389 747 z "},"ķ":{"ha":492,"x_min":63,"x_max":718,"o":"m 138 -253 l 233 -131 l 168 -131 l 203 0 l 351 0 l 317 -131 l 218 -253 l 138 -253 m 324 494 l 596 997 l 718 997 l 446 500 l 492 0 l 358 0 l 321 486 l 196 0 l 63 0 l 319 997 l 453 997 l 324 494 z "},"Į":{"ha":258,"x_min":-54,"x_max":453,"o":"m 63 0 l 319 997 l 453 997 l 196 0 q 95 -77 125 -46 q 57 -142 65 -108 q 93 -187 44 -187 q 160 -167 119 -187 l 136 -262 q 49 -281 94 -281 q -27 -249 0 -281 q -42 -167 -54 -218 q -28 -129 -36 -149 q -2 -90 -19 -110 q 42 -47 15 -69 q 113 0 69 -25 l 63 0 z "},"Ā":{"ha":531,"x_min":56,"x_max":733,"o":"m 372 1044 l 399 1143 l 732 1143 l 706 1044 l 372 1044 m 467 486 l 553 818 q 510 876 567 876 l 474 876 q 400 818 414 876 l 314 486 l 467 486 m 189 0 l 56 0 l 268 826 q 472 997 314 997 l 572 997 q 688 826 733 997 l 475 0 l 342 0 l 436 365 l 283 365 l 189 0 z "},"Ē":{"ha":399,"x_min":63,"x_max":653,"o":"m 332 1044 l 358 1143 l 653 1143 l 626 1044 l 332 1044 m 63 0 l 319 997 l 614 997 l 586 886 l 425 886 l 336 546 l 497 546 l 469 435 l 308 435 l 224 111 l 385 111 l 357 0 l 63 0 z "},"Ė":{"ha":399,"x_min":63,"x_max":614,"o":"m 599 1214 l 554 1044 l 413 1044 l 457 1214 l 599 1214 m 63 0 l 319 997 l 614 997 l 586 886 l 425 886 l 336 546 l 497 546 l 469 435 l 308 435 l 224 111 l 385 111 l 357 0 l 63 0 z "},"Ģ":{"ha":542,"x_min":61,"x_max":726,"o":"m 192 -117 l 222 0 q 106 169 61 0 l 276 828 q 479 997 321 997 l 565 997 q 682 828 726 997 l 646 688 l 513 688 l 546 818 q 501 876 560 876 l 475 876 q 407 818 421 876 l 242 179 q 286 121 226 121 l 375 121 l 442 379 l 361 379 l 390 490 l 604 490 l 479 0 l 371 0 l 340 -117 l 238 -253 l 157 -253 l 257 -117 l 192 -117 z "},"Ķ":{"ha":492,"x_min":63,"x_max":718,"o":"m 138 -253 l 233 -131 l 168 -131 l 203 0 l 351 0 l 317 -131 l 218 -253 l 138 -253 m 324 494 l 596 997 l 718 997 l 446 500 l 492 0 l 358 0 l 321 486 l 196 0 l 63 0 l 319 997 l 453 997 l 324 494 z "},"Ī":{"ha":258,"x_min":63,"x_max":553,"o":"m 268 1040 l 294 1139 l 553 1139 l 526 1040 l 268 1040 m 63 0 l 319 997 l 453 997 l 196 0 l 63 0 z "},"Ļ":{"ha":385,"x_min":63,"x_max":453,"o":"m 101 -131 l 136 0 l 63 0 l 319 997 l 453 997 l 224 111 l 385 111 l 357 0 l 285 0 l 250 -131 l 151 -253 l 71 -253 l 167 -131 l 101 -131 z "},"Ņ":{"ha":535,"x_min":63,"x_max":729,"o":"m 196 0 l 339 0 l 390 199 l 364 653 l 196 0 m 128 -253 l 224 -131 l 158 -131 l 193 0 l 63 0 l 319 997 l 453 997 l 472 515 l 596 997 l 729 997 l 472 0 l 342 0 l 307 -131 l 208 -253 l 128 -253 z "},"Ō":{"ha":694,"x_min":61,"x_max":754,"o":"m 382 1044 l 408 1143 l 742 1143 l 715 1044 l 382 1044 m 344 111 q 404 163 390 111 l 578 835 q 539 886 592 886 l 476 886 q 411 835 425 886 l 238 163 q 276 111 224 111 l 344 111 m 224 0 q 106 169 61 0 l 275 826 q 479 997 321 997 l 593 997 q 708 826 754 997 l 539 169 q 335 0 494 0 l 224 0 z "},"Ų":{"ha":544,"x_min":63,"x_max":739,"o":"m 240 0 q 111 190 63 7 l 319 997 l 453 997 l 243 186 q 285 121 225 121 l 318 121 q 396 186 378 121 l 606 997 l 739 997 l 531 189 q 328 1 488 21 q 248 -64 272 -36 q 217 -122 224 -92 q 251 -168 204 -168 q 319 -147 278 -168 l 294 -243 q 208 -261 254 -261 q 131 -230 158 -261 q 117 -147 103 -199 q 128 -113 121 -131 q 150 -78 136 -96 q 185 -40 164 -60 q 240 0 207 -21 z "},"Ū":{"ha":544,"x_min":63,"x_max":739,"o":"m 379 1044 l 406 1143 l 739 1143 l 713 1044 l 379 1044 m 739 997 l 531 189 q 292 0 481 0 l 251 0 q 111 190 63 0 l 319 997 l 453 997 l 243 186 q 285 121 225 121 l 318 121 q 396 186 378 121 l 606 997 l 739 997 z "},"į":{"ha":258,"x_min":-51,"x_max":453,"o":"m 196 0 q 138 -36 163 -19 q 99 -67 114 -53 q 74 -97 83 -82 q 61 -128 65 -111 q 96 -174 49 -174 q 164 -153 122 -174 l 139 -249 q 53 -267 99 -267 q -24 -235 4 -267 q -37 -153 -51 -204 q -25 -117 -33 -135 q 0 -81 -17 -99 q 44 -43 17 -62 q 113 0 71 -24 l 196 0 m 63 0 l 319 997 l 453 997 l 196 0 l 63 0 z "},"ā":{"ha":531,"x_min":56,"x_max":733,"o":"m 372 1044 l 399 1143 l 732 1143 l 706 1044 l 372 1044 m 467 486 l 553 818 q 510 876 567 876 l 474 876 q 400 818 414 876 l 314 486 l 467 486 m 189 0 l 56 0 l 268 826 q 472 997 314 997 l 572 997 q 688 826 733 997 l 475 0 l 342 0 l 436 365 l 283 365 l 189 0 z "},"ē":{"ha":399,"x_min":63,"x_max":653,"o":"m 332 1044 l 358 1143 l 653 1143 l 626 1044 l 332 1044 m 63 0 l 319 997 l 614 997 l 586 886 l 425 886 l 336 546 l 497 546 l 469 435 l 308 435 l 224 111 l 385 111 l 357 0 l 63 0 z "},"ė":{"ha":399,"x_min":63,"x_max":614,"o":"m 597 1214 l 553 1044 l 411 1044 l 456 1214 l 597 1214 m 63 0 l 319 997 l 614 997 l 586 886 l 425 886 l 336 546 l 497 546 l 469 435 l 308 435 l 224 111 l 385 111 l 357 0 l 63 0 z "},"ģ":{"ha":542,"x_min":61,"x_max":726,"o":"m 683 1326 l 583 1189 l 649 1189 l 611 1044 l 463 1044 l 500 1189 l 603 1326 l 683 1326 m 604 490 l 479 0 l 222 0 q 106 169 61 0 l 276 828 q 479 997 321 997 l 565 997 q 682 828 726 997 l 646 688 l 513 688 l 546 818 q 501 876 560 876 l 475 876 q 407 818 421 876 l 242 179 q 286 121 226 121 l 375 121 l 442 379 l 361 379 l 390 490 l 604 490 z "},"ī":{"ha":258,"x_min":63,"x_max":553,"o":"m 268 1040 l 294 1139 l 553 1139 l 526 1040 l 268 1040 m 63 0 l 319 997 l 453 997 l 196 0 l 63 0 z "},"ļ":{"ha":258,"x_min":-10,"x_max":453,"o":"m -10 -253 l 82 -144 l 17 -144 l 54 0 l 203 0 l 165 -144 l 69 -253 l -10 -253 m 76 56 l 319 997 l 453 997 l 210 56 l 76 56 z "},"ņ":{"ha":535,"x_min":63,"x_max":729,"o":"m 196 0 l 339 0 l 390 199 l 364 653 l 196 0 m 128 -253 l 224 -131 l 158 -131 l 193 0 l 63 0 l 319 997 l 453 997 l 472 515 l 596 997 l 729 997 l 472 0 l 342 0 l 307 -131 l 208 -253 l 128 -253 z "},"ō":{"ha":694,"x_min":61,"x_max":754,"o":"m 382 1044 l 408 1143 l 742 1143 l 715 1044 l 382 1044 m 344 111 q 404 163 390 111 l 578 835 q 539 886 592 886 l 476 886 q 411 835 425 886 l 238 163 q 276 111 224 111 l 344 111 m 224 0 q 106 169 61 0 l 275 826 q 479 997 321 997 l 593 997 q 708 826 754 997 l 539 169 q 335 0 494 0 l 224 0 z "},"ų":{"ha":544,"x_min":63,"x_max":739,"o":"m 240 0 q 111 190 63 7 l 319 997 l 453 997 l 243 186 q 285 121 225 121 l 318 121 q 396 186 378 121 l 606 997 l 739 997 l 531 189 q 328 1 488 21 q 248 -64 272 -36 q 217 -122 224 -92 q 251 -168 204 -168 q 319 -147 278 -168 l 294 -243 q 208 -261 254 -261 q 131 -230 158 -261 q 117 -147 103 -199 q 128 -113 121 -131 q 150 -78 136 -96 q 185 -40 164 -60 q 240 0 207 -21 z "},"ū":{"ha":544,"x_min":63,"x_max":739,"o":"m 379 1044 l 406 1143 l 739 1143 l 713 1044 l 379 1044 m 739 997 l 531 189 q 292 0 481 0 l 251 0 q 111 190 63 0 l 319 997 l 453 997 l 243 186 q 285 121 225 121 l 318 121 q 396 186 378 121 l 606 997 l 739 997 z "},"ŗ":{"ha":518,"x_min":49,"x_max":721,"o":"m 126 -253 l 222 -131 l 157 -131 l 192 0 l 340 0 l 306 -131 l 207 -253 l 126 -253 m 315 517 l 403 517 q 481 589 463 517 l 536 804 q 496 876 554 876 l 408 876 l 315 517 m 350 0 l 367 403 l 286 403 l 182 0 l 49 0 l 306 997 l 567 997 q 675 826 721 997 l 613 581 q 490 415 578 450 l 476 0 l 350 0 z "}}}
